<?xml version="1.0" encoding="UTF-8"?>
<svg version="1.1" xmlns="http://www.w3.org/2000/svg" width="190" height="206">
<path d="M0 0 C2.36850056 1.87427091 4.72819842 3.75345461 7.0546875 5.6796875 C9.02186759 7.28079134 9.02186759 7.28079134 12 7 C12.04125 7.78375 12.0825 8.5675 12.125 9.375 C13.15401652 13.63806845 15.0212726 16.55393586 17.3203125 20.25 C29.14597551 39.61108548 34.63939926 62.80176262 29.97460938 85.3215332 C24.38084744 108.05050723 10.34257673 128.50951659 -9.60302734 140.92724609 C-28.29896657 152.04963398 -49.91374074 157.5902874 -71.36547852 152.45751953 C-75.28384132 151.42466365 -79.1455029 150.2484415 -83 149 C-84.20914063 148.61585938 -85.41828125 148.23171875 -86.6640625 147.8359375 C-108.15429655 140.29640431 -124.41612045 123.17490489 -134.31762695 103.08569336 C-144.31701739 81.75621455 -144.60525947 58.66703764 -136.83203125 36.69921875 C-127.93340313 14.03507529 -111.34232014 -2.00298785 -89.75 -12.75 C-59.42314084 -25.60405668 -25.97112541 -19.46583388 0 0 Z " fill="#0F0F0F" transform="translate(151,34)"/>
<path d="M0 0 C3.37076246 2.62223388 6.70183326 5.28710293 10 8 C7.75 10.5 7.75 10.5 5 13 C0.55049571 13 0.38485822 12.83393194 -2.5625 9.9375 C-14.74239844 -1.20676936 -29.02850642 -6.26646406 -44.89916992 -9.5324707 C-46.32503616 -9.84979015 -47.74039805 -10.21765491 -49.1418457 -10.62963867 C-55.51427128 -12.40238684 -60.47141795 -11.55254603 -66.8125 -9.9375 C-67.78155273 -9.70216553 -68.75060547 -9.46683105 -69.74902344 -9.22436523 C-80.10629391 -6.61941269 -88.78115523 -2.8458763 -97.796875 2.83984375 C-100.62827057 4.33084461 -102.8557045 4.49646771 -106 4 C-106 4.99 -106 5.98 -106 7 C-107.32 7.33 -108.64 7.66 -110 8 C-109.505 10.475 -109.505 10.475 -109 13 C-109.74636719 13.39960937 -110.49273437 13.79921875 -111.26171875 14.2109375 C-123.75648529 22.37442263 -130.09946766 42.19521073 -133 56 C-133.6364436 58.00982188 -134.2839666 60.01713828 -135 62 C-134.34 62.33 -133.68 62.66 -133 63 C-133.99 63.495 -133.99 63.495 -135 64 C-132.58213639 80.77328796 -129.76986326 94.93070145 -121.234375 109.7578125 C-120 112 -120 112 -119 115 C-117.329375 114.01 -117.329375 114.01 -115.625 113 C-112.25 111 -112.25 111 -110 111 C-110.53109375 110.18917969 -111.0621875 109.37835938 -111.609375 108.54296875 C-118.13236551 98.3180621 -122.83702562 89.46238151 -122 77 C-122 76.01 -122 75.02 -122 74 C-121.42331683 71.30709554 -120.69902432 68.6650302 -120 66 C-120.66 65.67 -121.32 65.34 -122 65 C-121.34 65 -120.68 65 -120 65 C-120 64.34 -120 63.68 -120 63 C-120.66 63 -121.32 63 -122 63 C-121.67 60.03 -121.34 57.06 -121 54 C-120.34 54 -119.68 54 -119 54 C-119.3403125 52.948125 -119.3403125 52.948125 -119.6875 51.875 C-120.10131135 48.06793555 -118.77882328 46.35999953 -117 43 C-116.72576795 41.67143891 -116.47673572 40.33748596 -116.25 39 C-115.30314123 34.7228104 -113.13297049 32.9262923 -109.65625 30.421875 C-107.76341354 28.79689275 -106.97246713 27.27557309 -106 25 C-105.34 25 -104.68 25 -104 25 C-103.67 24.01 -103.34 23.02 -103 22 C-101.67696283 21.6278958 -100.34262065 21.29369827 -99 21 C-98.505 20.01 -98.505 20.01 -98 19 C-97.34 19 -96.68 19 -96 19 C-94.64287834 17.44144019 -94.64287834 17.44144019 -93.375 15.5 C-92.70597656 14.52546875 -92.70597656 14.52546875 -92.0234375 13.53125 C-91.68570313 13.0259375 -91.34796875 12.520625 -91 12 C-90.34 12.33 -89.68 12.66 -89 13 C-88.34 12.67 -87.68 12.34 -87 12 C-86.505 10.515 -86.505 10.515 -86 9 C-82.63157895 7 -82.63157895 7 -81 7 C-79.6078125 6.01 -79.6078125 6.01 -78.1875 5 C-73.60418061 2.12419175 -70.10487726 3.0718405 -65 4 C-64.505 2.515 -64.505 2.515 -64 1 C-63.34 1 -62.68 1 -62 1 C-61.01 2.485 -61.01 2.485 -60 4 C-59.34 4 -58.68 4 -58 4 C-57.505 2.515 -57.505 2.515 -57 1 C-53.93173489 -0.27844379 -51.66308463 0.08422884 -48.5 0.875 C-47.7471875 1.05804688 -46.994375 1.24109375 -46.21875 1.4296875 C-45.4865625 1.61789063 -44.754375 1.80609375 -44 2 C-43.2471875 2.18820313 -42.494375 2.37640625 -41.71875 2.5703125 C-41.1515625 2.71210937 -40.584375 2.85390625 -40 3 C-40 2.67 -40 2.34 -40 2 C-27.09012034 1.79177613 -16.67453705 8.6301484 -7.6953125 17.27734375 C-6.85613281 18.13005859 -6.85613281 18.13005859 -6 19 C-7.16714658 22.50143974 -7.94317665 22.91326648 -10.9375 24.890625 C-11.75089844 25.43589844 -12.56429687 25.98117188 -13.40234375 26.54296875 C-14.25957031 27.10628906 -15.11679688 27.66960938 -16 28.25 C-21.93385416 32.18430268 -27.66682292 36.20325245 -33.1875 40.70605469 C-35 42 -35 42 -37 42 C-37.03758423 40.9627478 -37.03758423 40.9627478 -37.07592773 39.90454102 C-37.19152161 36.79032134 -37.31441242 33.67643211 -37.4375 30.5625 C-37.47681641 29.47388672 -37.51613281 28.38527344 -37.55664062 27.26367188 C-37.59853516 26.22919922 -37.64042969 25.19472656 -37.68359375 24.12890625 C-37.72025146 23.17056885 -37.75690918 22.21223145 -37.79467773 21.22485352 C-37.75834424 19.02861075 -37.75834424 19.02861075 -39 18 C-41.79993597 17.89896745 -44.57468644 17.86029912 -47.375 17.8671875 C-48.21466309 17.86623077 -49.05432617 17.86527405 -49.91943359 17.86428833 C-51.69824295 17.86360652 -53.47705477 17.86546083 -55.25585938 17.86962891 C-57.98833776 17.87497717 -60.72065176 17.86968395 -63.453125 17.86328125 C-65.1770837 17.86394203 -66.90104229 17.86522319 -68.625 17.8671875 C-69.44790527 17.86516327 -70.27081055 17.86313904 -71.11865234 17.86105347 C-74.86379866 17.5142454 -74.86379866 17.5142454 -78 19 C-78.15786308 20.85174706 -78.25107356 22.7090911 -78.31640625 24.56640625 C-78.35451416 25.57904541 -78.39262207 26.59168457 -78.43188477 27.63500977 C-78.47498779 28.93108154 -78.51809082 30.22715332 -78.5625 31.5625 C-78.706875 35.666875 -78.85125 39.77125 -79 44 C-91.375 44.495 -91.375 44.495 -104 45 C-104.02290734 50.5359399 -104.04283491 56.07171655 -104.05493164 61.60766602 C-104.05997244 63.4924373 -104.06680498 65.37720465 -104.07543945 67.26196289 C-104.08751617 69.96501636 -104.09323068 72.66801831 -104.09765625 75.37109375 C-104.10281754 76.21900986 -104.10797882 77.06692596 -104.11329651 77.9405365 C-104.11349195 79.96071068 -104.06206211 81.98077934 -104 84 C-103.67 84.33 -103.34 84.66 -103 85 C-102.07316406 84.97679688 -101.14632812 84.95359375 -100.19140625 84.9296875 C-94.70085461 84.84694506 -90.55174206 84.97717253 -85.8828125 88.0546875 C-80.87706106 93.06043894 -78.47203009 97.00317262 -77.9375 104.125 C-77.95362782 106.08337774 -77.97305149 108.04174127 -78 110 C-76.15723491 111.84276509 -73.57036241 111.12874411 -71.11865234 111.13894653 C-70.29574707 111.1369223 -69.4728418 111.13489807 -68.625 111.1328125 C-67.78533691 111.13376923 -66.94567383 111.13472595 -66.08056641 111.13571167 C-64.30175705 111.13639348 -62.52294523 111.13453917 -60.74414062 111.13037109 C-58.01166224 111.12502283 -55.27934824 111.13031605 -52.546875 111.13671875 C-50.8229163 111.13605797 -49.09895771 111.13477681 -47.375 111.1328125 C-46.55209473 111.13483673 -45.72918945 111.13686096 -44.88134766 111.13894653 C-41.13620134 111.4857546 -41.13620134 111.4857546 -38 110 C-37.84235595 108.22130274 -37.74899323 106.43681524 -37.68359375 104.65234375 C-37.64548584 103.68031006 -37.60737793 102.70827637 -37.56811523 101.70678711 C-37.52501221 100.46292236 -37.48190918 99.21905762 -37.4375 97.9375 C-37.293125 93.998125 -37.14875 90.05875 -37 86 C-28.42 85.67 -19.84 85.34 -11 85 C-11.33 71.8 -11.66 58.6 -12 45 C-15.3 44.67 -18.6 44.34 -22 44 C-16.80029729 36.48931831 -10.52800875 30.33787257 -4 24 C3.53297311 27.12658884 6.7238947 36.1253294 9.921875 43.12890625 C12.63448694 50.35270979 13.30091475 56.66184513 13.1875 64.3125 C13.17348145 65.70843384 13.17348145 65.70843384 13.15917969 67.13256836 C12.9104708 85.34730596 9.4530461 100.08188965 -3 114 C-4.32 113.67 -5.64 113.34 -7 113 C-6.90203125 113.73347656 -6.8040625 114.46695313 -6.703125 115.22265625 C-7 118 -7 118 -8.984375 120.24609375 C-26.17374655 133.86648561 -44.29914892 138.95839039 -66 137 C-79.94218386 135.10811275 -91.91099406 128.68416939 -101.87890625 118.91796875 C-103.85971639 117.12684945 -105.56111647 116.0452358 -108 115 C-110.97 116.98 -110.97 116.98 -114 119 C-105.45292405 129.58209403 -94.82782299 137.25612584 -82 142 C-82 142.99 -82 143.98 -82 145 C-77.68803391 145.94324258 -73.37934119 146.48041715 -69 147 C-69.33 148.65 -69.66 150.3 -70 152 C-92.20356963 148.90431 -110.96681401 136.73652757 -124.75 119.3125 C-138.47302686 100.06041332 -144.86851687 77.2615533 -141.68359375 53.65478516 C-137.37869327 30.47414993 -124.35681696 9.2644082 -104.86328125 -4.16015625 C-71.29154392 -25.41563492 -31.9061929 -24.03323621 0 0 Z " fill="#F3F1F2" transform="translate(151,34)"/>
<path d="M0 0 C13.06853885 12.06623203 20.53246134 35.35236429 21.23828125 52.71484375 C21.80492717 79.17518453 13.0744086 100.32773473 -5.1875 119.6875 C-21.28439134 135.24633369 -43.26190132 144.22042738 -65.625 144.4375 C-66.35879883 144.44765137 -67.09259766 144.45780273 -67.84863281 144.46826172 C-72.89561863 144.38603685 -76.47764216 143.23743951 -81 141 C-80.67 140.01 -80.34 139.02 -80 138 C-81.5778125 137.814375 -81.5778125 137.814375 -83.1875 137.625 C-86.45958771 137.08859218 -89.00536076 136.36119965 -92 135 C-92 134.01 -92 133.02 -92 132 C-93.19625 131.690625 -94.3925 131.38125 -95.625 131.0625 C-107.38001088 127.10096878 -116.80015508 119.05005926 -125 110 C-120.72842221 105.37245739 -120.72842221 105.37245739 -117.9296875 103.94140625 C-116 104 -116 104 -114.1328125 105.58984375 C-113.47023438 106.36457031 -112.80765625 107.13929688 -112.125 107.9375 C-101.86553101 118.75290081 -86.3468519 125.6424586 -71.4453125 126.23828125 C-51.65318854 126.6524439 -35.72255325 122.39605827 -19.86328125 110.02734375 C-17.70572622 107.67981532 -17.32012955 106.13075847 -17 103 C-15.87271484 102.89171875 -15.87271484 102.89171875 -14.72265625 102.78125 C-9.64951727 101.32554298 -7.57680287 96.33761816 -5 92 C-0.68656341 83.75920603 1.26095976 75.82199191 1.5625 66.5625 C1.78432446 60.6487544 2.18530473 54.86445931 3 49 C3.99 50.98 3.99 50.98 5 53 C7.64 53 10.28 53 13 53 C10.65623439 37.85430256 7.65268693 22.43224334 -2.875 10.5625 C-5 8 -5 8 -5 4 C-2.5 1.75 -2.5 1.75 0 0 Z " fill="#F0EBEB" transform="translate(161,44)"/>
<path d="M0 0 C1.14355957 0.27932373 2.28711914 0.55864746 3.46533203 0.84643555 C19.78468961 5.00177416 33.52343446 11.29557586 45.375 23.5625 C43.9111389 27.95408329 41.39668662 28.44197433 37.375 30.5625 C36.53582031 29.70978516 36.53582031 29.70978516 35.6796875 28.83984375 C27.03506671 20.51487936 16.78845047 13.5625 4.375 13.5625 C3.715 13.8925 3.055 14.2225 2.375 14.5625 C1.67375 14.27375 0.9725 13.985 0.25 13.6875 C-4.32818353 11.89603688 -8.86491301 10.97580434 -13.625 12.5625 C-15.29210346 14.06235609 -15.29210346 14.06235609 -16.625 15.5625 C-17.285 15.2325 -17.945 14.9025 -18.625 14.5625 C-18.625 13.5725 -18.625 12.5825 -18.625 11.5625 C-19.3675 12.2225 -20.11 12.8825 -20.875 13.5625 C-23.625 15.5625 -23.625 15.5625 -27.625 15.5625 C-28.264375 15.335625 -28.90375 15.10875 -29.5625 14.875 C-31.79817884 14.3418722 -31.79817884 14.3418722 -34.3125 15.8125 C-36.89242523 17.42200769 -36.89242523 17.42200769 -37.625 20.5625 C-38.285 19.9025 -38.945 19.2425 -39.625 18.5625 C-40.615 19.2225 -41.605 19.8825 -42.625 20.5625 C-42.625 21.5525 -42.625 22.5425 -42.625 23.5625 C-44.5625 24.125 -44.5625 24.125 -46.625 24.5625 C-46.955 24.2325 -47.285 23.9025 -47.625 23.5625 C-48.945 25.8725 -50.265 28.1825 -51.625 30.5625 C-52.615 30.2325 -53.605 29.9025 -54.625 29.5625 C-54.955 30.5525 -55.285 31.5425 -55.625 32.5625 C-56.95296291 32.91662344 -58.28716607 33.24771554 -59.625 33.5625 C-61.49086994 35.0695488 -62.48211492 36.2327652 -63.4375 38.4375 C-64.625 40.5625 -64.625 40.5625 -67.5625 42.625 C-71.42682113 45.62431494 -71.99709219 49.41908525 -72.984375 54.0390625 C-73.625 56.5625 -73.625 56.5625 -75.625 59.5625 C-75.604375 60.325625 -75.58375 61.08875 -75.5625 61.875 C-75.64333875 65.35106637 -76.9498707 67.56122667 -78.625 70.5625 C-77.635 70.8925 -76.645 71.2225 -75.625 71.5625 C-76.615 71.5625 -77.605 71.5625 -78.625 71.5625 C-78.625 72.2225 -78.625 72.8825 -78.625 73.5625 C-77.965 73.5625 -77.305 73.5625 -76.625 73.5625 C-76.76808594 74.71878906 -76.76808594 74.71878906 -76.9140625 75.8984375 C-77.02492188 76.90132813 -77.13578125 77.90421875 -77.25 78.9375 C-77.36601563 79.93523437 -77.48203125 80.93296875 -77.6015625 81.9609375 C-77.60929687 82.81945312 -77.61703125 83.67796875 -77.625 84.5625 C-76.965 85.2225 -76.305 85.8825 -75.625 86.5625 C-76.615 87.0575 -76.615 87.0575 -77.625 87.5625 C-78.93944703 97.90768499 -74.83087578 108.54646527 -68.75 116.875 C-67.698125 118.2053125 -67.698125 118.2053125 -66.625 119.5625 C-66.625 120.2225 -66.625 120.8825 -66.625 121.5625 C-73.375 125.5625 -73.375 125.5625 -75.625 125.5625 C-77.96258396 122.44337442 -79.75619925 118.97682554 -81.625 115.5625 C-82.14835937 114.62019531 -82.67171875 113.67789063 -83.2109375 112.70703125 C-88.79657646 101.74840457 -90.71193572 89.82671469 -92.30859375 77.72265625 C-92.40068115 77.025354 -92.49276855 76.32805176 -92.58764648 75.60961914 C-92.64509112 72.46142787 -91.62288742 69.88899867 -90.49609375 66.984375 C-89.54636185 64.34386478 -89.0054549 61.7469714 -88.4375 59 C-85.35882578 46.37904755 -77.64534466 29.90939644 -66.625 22.5625 C-66.955 21.2425 -67.285 19.9225 -67.625 18.5625 C-65.975 18.2325 -64.325 17.9025 -62.625 17.5625 C-62.625 16.5725 -62.625 15.5825 -62.625 14.5625 C-61.61050781 14.31113281 -60.59601562 14.05976562 -59.55078125 13.80078125 C-55.63381421 12.68178816 -52.3063696 10.80420151 -48.8125 8.75 C-41.19129089 4.47778287 -33.34219135 2.01301493 -24.84667969 0.0769043 C-23.32220148 -0.27607104 -21.80685296 -0.67023687 -20.30175781 -1.09838867 C-13.04860441 -2.96121644 -7.17513337 -1.81202521 0 0 Z " fill="#EAD2D4" transform="translate(107.625,23.4375)"/>
<path d="M0 0 C3.37076246 2.62223388 6.70183326 5.28710293 10 8 C7.75 10.5 7.75 10.5 5 13 C0.55049571 13 0.38485822 12.83393194 -2.5625 9.9375 C-14.74239844 -1.20676936 -29.02850642 -6.26646406 -44.89916992 -9.5324707 C-46.32503616 -9.84979015 -47.74039805 -10.21765491 -49.1418457 -10.62963867 C-55.51427128 -12.40238684 -60.47141795 -11.55254603 -66.8125 -9.9375 C-67.78155273 -9.70216553 -68.75060547 -9.46683105 -69.74902344 -9.22436523 C-80.10629391 -6.61941269 -88.78115523 -2.8458763 -97.796875 2.83984375 C-100.62827057 4.33084461 -102.8557045 4.49646771 -106 4 C-106 4.99 -106 5.98 -106 7 C-107.32 7.33 -108.64 7.66 -110 8 C-109.505 10.475 -109.505 10.475 -109 13 C-109.74636719 13.39960937 -110.49273437 13.79921875 -111.26171875 14.2109375 C-123.75648529 22.37442263 -130.09946766 42.19521073 -133 56 C-133.6364436 58.00982188 -134.2839666 60.01713828 -135 62 C-134.34 62.33 -133.68 62.66 -133 63 C-133.99 63.495 -133.99 63.495 -135 64 C-132.58213639 80.77328796 -129.76986326 94.93070145 -121.234375 109.7578125 C-120 112 -120 112 -119 115 C-117.329375 114.01 -117.329375 114.01 -115.625 113 C-112.25 111 -112.25 111 -110 111 C-110.53109375 110.18917969 -111.0621875 109.37835938 -111.609375 108.54296875 C-122 92.25547445 -122 92.25547445 -122 83 C-121.34 83 -120.68 83 -120 83 C-118.70074209 87.33085971 -117.656379 91.51474352 -117 96 C-115.68 96 -114.36 96 -113 96 C-113 95.34 -113 94.68 -113 94 C-112.34 94.33 -111.68 94.66 -111 95 C-111.185625 95.598125 -111.37125 96.19625 -111.5625 96.8125 C-112.22093687 99.16408762 -112.22093687 99.16408762 -111 102 C-110.21625 102.144375 -109.4325 102.28875 -108.625 102.4375 C-106 103 -106 103 -104 104 C-103.64233098 106.77985792 -103.55590567 109.53624208 -103.44140625 112.3359375 C-102.95209212 115.28914315 -102.31380998 116.18597298 -100 118 C-100.33 118.66 -100.66 119.32 -101 120 C-103.475 117.525 -103.475 117.525 -106 115 C-109.42559084 116.20358597 -111.53258609 117.35892646 -114 120 C-104.83748663 130.09324272 -94.6460307 136.85585192 -82 142 C-82 142.99 -82 143.98 -82 145 C-77.68803391 145.94324258 -73.37934119 146.48041715 -69 147 C-69.33 148.65 -69.66 150.3 -70 152 C-92.20356963 148.90431 -110.96681401 136.73652757 -124.75 119.3125 C-138.47302686 100.06041332 -144.86851687 77.2615533 -141.68359375 53.65478516 C-137.37869327 30.47414993 -124.35681696 9.2644082 -104.86328125 -4.16015625 C-71.29154392 -25.41563492 -31.9061929 -24.03323621 0 0 Z " fill="#F0ECEC" transform="translate(151,34)"/>
<path d="M0 0 C9.24 0 18.48 0 28 0 C30.10513384 20.93438647 30.10513384 20.93438647 26.44287109 26.26757812 C22.29363309 30.23084735 17.4161623 32.98840042 12.38232422 35.68457031 C8.85479723 37.63233783 5.63955387 39.95976497 2.375 42.3125 C0.58467719 43.54362322 -1.20641037 44.77364101 -3 46 C-5.08333333 44.95833333 -7.16666667 43.91666667 -9.25 42.875 C-13.07462383 41.65807424 -15.985429 41.6709368 -20 42 C-22.10827055 45.16240582 -22.33817465 46.50657469 -22.625 50.1875 C-22.69976562 51.08855469 -22.77453125 51.98960938 -22.8515625 52.91796875 C-22.90054688 53.60503906 -22.94953125 54.29210937 -23 55 C-23.99 55 -24.98 55 -26 55 C-26 45.76 -26 36.52 -26 27 C-14.0625 26.5625 -14.0625 26.5625 -10.29321289 26.43188477 C-9.3211792 26.39377686 -8.34914551 26.35566895 -7.34765625 26.31640625 C-6.34742432 26.27974854 -5.34719238 26.24309082 -4.31665039 26.20532227 C-2.03930812 26.25328159 -2.03930812 26.25328159 -1 25 C-0.84213692 23.14825294 -0.74892644 21.2909089 -0.68359375 19.43359375 C-0.64548584 18.42095459 -0.60737793 17.40831543 -0.56811523 16.36499023 C-0.50346069 14.42088257 -0.50346069 14.42088257 -0.4375 12.4375 C-0.293125 8.333125 -0.14875 4.22875 0 0 Z " fill="#F4F4F4" transform="translate(79,58)"/>
<path d="M0 0 C4.29 0 8.58 0 13 0 C13 9.24 13 18.48 13 28 C4.42 28.33 -4.16 28.66 -13 29 C-13.33 37.25 -13.66 45.5 -14 54 C-23.24 54 -32.48 54 -42 54 C-42 44 -42 44 -39.18359375 40.2421875 C-37.95854541 39.09402573 -36.70849913 37.97207798 -35.4375 36.875 C-34.13379605 35.66711141 -32.83169201 34.45749353 -31.53125 33.24609375 C-30.90992187 32.68132324 -30.28859375 32.11655273 -29.6484375 31.53466797 C-27.76257143 29.77895794 -26.08109404 27.92071423 -24.4375 25.9375 C-20.80578268 21.64042989 -16.78140377 17.75543816 -12.78393555 13.8034668 C-8.65115152 9.69960443 -4.75389385 5.4546207 -1 1 C-0.67 0.67 -0.34 0.34 0 0 Z " fill="#F6F6F6" transform="translate(121,85)"/>
<path d="M0 0 C3.04950709 1.16346656 4.7730991 2.68225031 6.875 5.125 C19.70146057 18.28104842 37.50103147 21.52230932 55 23 C55 26.3 55 29.6 55 33 C69.40595232 30.99100665 82.3697638 28.33416954 94.82421875 20.34375 C96.77404829 19.13954648 98.62870546 18.22536644 100.75 17.375 C104.22284685 15.90571864 106.93252231 14.16967934 110 12 C109.505 9.525 109.505 9.525 109 7 C109.99 7 110.98 7 112 7 C112.495 7.99 112.495 7.99 113 9 C115.97 8.505 115.97 8.505 119 8 C104.48036545 25.95849536 84.8521858 36.65122057 62 40 C58.78775193 40.29290818 55.59983528 40.41209707 52.375 40.4375 C51.27478516 40.45248535 51.27478516 40.45248535 50.15234375 40.46777344 C45.10489385 40.3867364 41.52262431 39.23757135 37 37 C37.33 36.01 37.66 35.02 38 34 C36.4221875 33.814375 36.4221875 33.814375 34.8125 33.625 C31.54041229 33.08859218 28.99463924 32.36119965 26 31 C26 30.01 26 29.02 26 28 C24.80375 27.690625 23.6075 27.38125 22.375 27.0625 C10.61998912 23.10096878 1.19984492 15.05005926 -7 6 C-2.25 1.125 -2.25 1.125 0 0 Z " fill="#F0ECEC" transform="translate(43,148)"/>
<path d="M0 0 C0.495 0.99 0.495 0.99 1 2 C1.71027344 1.98839844 2.42054688 1.97679688 3.15234375 1.96484375 C4.07144531 1.95582031 4.99054688 1.94679688 5.9375 1.9375 C7.31228516 1.92009766 7.31228516 1.92009766 8.71484375 1.90234375 C11 2 11 2 12 3 C12.08868299 5.95705321 12.11520296 8.89065056 12.09765625 11.84765625 C12.0962413 12.7340831 12.09482635 13.62050995 12.09336853 14.53379822 C12.08775215 17.37673254 12.07519691 20.21958931 12.0625 23.0625 C12.05748711 24.98502491 12.05292384 26.90755104 12.04882812 28.83007812 C12.03777741 33.55341549 12.02050183 38.27669458 12 43 C9.39048764 44.30475618 7.47298715 44.11301572 4.5546875 44.09765625 C2.94013672 44.09282227 2.94013672 44.09282227 1.29296875 44.08789062 C0.16503906 44.07951172 -0.96289062 44.07113281 -2.125 44.0625 C-3.82849609 44.05573242 -3.82849609 44.05573242 -5.56640625 44.04882812 C-8.37765638 44.03701615 -11.1888023 44.02054507 -14 44 C-13.98428955 45.07483643 -13.98428955 45.07483643 -13.96826172 46.17138672 C-13.92678701 49.40588905 -13.90070108 52.64033553 -13.875 55.875 C-13.85824219 57.00292969 -13.84148437 58.13085938 -13.82421875 59.29296875 C-13.81455078 60.90751953 -13.81455078 60.90751953 -13.8046875 62.5546875 C-13.78897705 64.04718018 -13.78897705 64.04718018 -13.77294922 65.56982422 C-14 68 -14 68 -16 70 C-18.84540142 70.19990227 -21.59137784 70.27976976 -24.4375 70.265625 C-25.27337646 70.26753845 -26.10925293 70.2694519 -26.97045898 70.27142334 C-28.73909811 70.27278536 -30.50774723 70.26908776 -32.27636719 70.26074219 C-34.98915994 70.25004275 -37.70129044 70.26063676 -40.4140625 70.2734375 C-42.1302098 70.27211591 -43.84635669 70.26955352 -45.5625 70.265625 C-46.7844104 70.27169769 -46.7844104 70.27169769 -48.03100586 70.27789307 C-53.77008072 70.22991928 -53.77008072 70.22991928 -56 68 C-56.1953125 65.3984375 -56.1953125 65.3984375 -56.125 62.375 C-56.10695313 61.37210938 -56.08890625 60.36921875 -56.0703125 59.3359375 C-56.04710938 58.56507813 -56.02390625 57.79421875 -56 57 C-55.67 57.66 -55.34 58.32 -55 59 C-53.02 57.68 -51.04 56.36 -49 55 C-49 57.64 -49 60.28 -49 63 C-39.76 63 -30.52 63 -21 63 C-21.0395914 54.81747203 -21.0395914 54.81747203 -21.09008789 46.63500977 C-21.09258545 45.62237061 -21.09508301 44.60973145 -21.09765625 43.56640625 C-21.10289307 42.52427979 -21.10812988 41.48215332 -21.11352539 40.40844727 C-21 38 -21 38 -20 37 C-18.07332493 36.91251793 -16.14348139 36.89302666 -14.21484375 36.90234375 C-13.16159912 36.90484131 -12.10835449 36.90733887 -11.02319336 36.90991211 C-9.67491455 36.91901611 -8.32663574 36.92812012 -6.9375 36.9375 C-2.668125 36.958125 1.60125 36.97875 6 37 C6 27.76 6 18.52 6 9 C-6.01392093 8.76504689 -6.01392093 8.76504689 -10.67578125 12.72265625 C-11.59082444 13.80643081 -12.47088128 14.92076918 -13.3125 16.0625 C-14.01149414 16.91424805 -14.01149414 16.91424805 -14.72460938 17.78320312 C-15.84912616 19.16276496 -16.92971239 20.57795454 -18 22 C-18.66 21.34 -19.32 20.68 -20 20 C-16.64337094 14.12589914 -13.82813116 10.24748309 -7.74609375 7.04296875 C-5.07113622 5.44517533 -3.09484744 3.27968692 -1 1 C-0.67 0.67 -0.34 0.34 0 0 Z " fill="#0E0E0E" transform="translate(128,76)"/>
<path d="M0 0 C0 3 0 3 -1.3894043 4.72998047 C-2.02789307 5.35275879 -2.66638184 5.97553711 -3.32421875 6.6171875 C-4.02353516 7.30683594 -4.72285156 7.99648437 -5.44335938 8.70703125 C-6.18392578 9.42246094 -6.92449219 10.13789062 -7.6875 10.875 C-8.40873047 11.58269531 -9.12996094 12.29039063 -9.87304688 13.01953125 C-11.91057938 15.01798779 -13.95490999 17.00928383 -16 19 C-19.57912305 22.52181541 -23.00611927 26.15325702 -26.375 29.875 C-29.91847801 33.7697404 -33.52288603 37.57066298 -37.28637695 41.25341797 C-38.99022592 42.99003793 -40.5669064 44.78909864 -42.14453125 46.640625 C-46.20248919 51.3061515 -50.542528 55.65398656 -54.9375 60 C-55.71673828 60.77472656 -56.49597656 61.54945312 -57.29882812 62.34765625 C-59.1969242 64.23410757 -61.09733149 66.11816245 -63 68 C-63.75023438 67.24460937 -64.50046875 66.48921875 -65.2734375 65.7109375 C-66.79885833 64.19425834 -68.33614682 62.68854968 -69.9140625 61.2265625 C-73.96203399 57.43736544 -76.41336505 54.35489295 -78 49 C-77.86824541 46.1013991 -77.35314776 44.5885796 -75.875 42.125 C-72.7787023 40.26722138 -70.39890168 41.17957546 -67 42 C-64.0625 43.5625 -64.0625 43.5625 -62 45 C-61.05125 44.175 -60.1025 43.35 -59.125 42.5 C-56.25 40 -56.25 40 -54 40 C-54 39.34 -54 38.68 -54 38 C-51.875 36.484375 -51.875 36.484375 -49 34.75 C-44.82950748 32.22453509 -40.93854377 29.49805301 -37.06201172 26.55273438 C-33.78281092 24.08343327 -30.42265165 21.73230639 -27.0625 19.375 C-26.34320313 18.86864014 -25.62390625 18.36228027 -24.8828125 17.84057617 C-22.58927425 16.22600673 -20.2946873 14.61293585 -18 13 C-14.83234501 10.77223377 -11.66589618 8.54276471 -8.5 6.3125 C-7.39603882 5.53688721 -7.39603882 5.53688721 -6.26977539 4.74560547 C-2.99256235 2.54773653 -2.99256235 2.54773653 0 0 Z " fill="#E50B08" transform="translate(137,62)"/>
<path d="M0 0 C3.04950709 1.16346656 4.7730991 2.68225031 6.875 5.125 C18.17718834 16.7176086 34.44732811 21.09354345 50 23 C50.495 27.95 50.495 27.95 51 33 C27.51532752 32.29581192 9.0390979 22.82575665 -7 6 C-2.25 1.125 -2.25 1.125 0 0 Z " fill="#E3212B" transform="translate(43,148)"/>
<path d="M0 0 C2.31 1.98 4.62 3.96 7 6 C4.34873342 11.30253315 0.76344212 13.62068016 -4 17 C-4.72058594 17.51949219 -5.44117188 18.03898437 -6.18359375 18.57421875 C-17.98488356 26.36675154 -31.97377451 29.9548996 -46 30 C-46 26.7 -46 23.4 -46 20 C-44.38544922 19.76216797 -44.38544922 19.76216797 -42.73828125 19.51953125 C-25.75763846 16.8713712 -13.03289646 11.31804166 0 0 Z " fill="#B30F13" transform="translate(144,151)"/>
<path d="M0 0 C20.35545869 1.45396134 39.66670325 9.10526075 54 24 C52.5361389 28.39158329 50.02168662 28.87947433 46 31 C45.44054687 30.43152344 44.88109375 29.86304687 44.3046875 29.27734375 C31.76757068 17.20381806 17.01181277 12.23493676 0 10 C0 6.7 0 3.4 0 0 Z " fill="#D00C0C" transform="translate(99,23)"/>
<path d="M0 0 C3.3 0 6.6 0 10 0 C11.5508454 18.92031385 2.71977704 37.64327312 -9 52 C-11.93446886 50.58208437 -14.43332409 49.01667393 -17 47 C-15.91962365 43.54279569 -14.34560845 41.05379855 -12.125 38.25 C-3.93325225 27.53312613 -0.81571714 13.25540347 0 0 Z " fill="#BE0601" transform="translate(165,102)"/>
<path d="M0 0 C0.495 4.455 0.495 4.455 1 9 C0.1028125 9.07476562 -0.794375 9.14953125 -1.71875 9.2265625 C-15.00864939 10.62694446 -27.16838711 14.10523693 -37.88671875 22.38671875 C-40.16115637 24.12302695 -42.5262227 25.56598899 -45 27 C-46.98 25.02 -48.96 23.04 -51 21 C-49.70107081 17.10321244 -47.33199904 15.81768765 -44.0625 13.625 C-43.47130371 13.22579346 -42.88010742 12.82658691 -42.27099609 12.4152832 C-29.31901454 3.80688995 -15.74862061 -1.05577345 0 0 Z " fill="#B60605" transform="translate(94,24)"/>
<path d="M0 0 C0.00257812 0.94617188 0.00515625 1.89234375 0.0078125 2.8671875 C0.32661617 17.5190293 4.1165302 31.02058781 12.6796875 43.03125 C14 45 14 45 14 47 C7.25 51 7.25 51 5 51 C-5.99269981 36.33203007 -10.8127625 19.12159348 -10 1 C-2.25 0 -2.25 0 0 0 Z " fill="#E60A05" transform="translate(27,98)"/>
<path d="M0 0 C2.31 1.98 4.62 3.96 7 6 C5.29138269 9.41723463 4.49204026 10.50795974 2 13 C-4.85055026 23.89508417 -9.18207967 34.50313594 -12 47 C-14.97 47 -17.94 47 -21 47 C-20.65273116 29.47870852 -12.3734235 12.3734235 0 0 Z " fill="#B40708" transform="translate(39,47)"/>
<path d="M0 0 C11.38680086 13.9033586 19.44221735 29.65961727 19 48 C14.545 48.495 14.545 48.495 10 49 C9.8040625 47.88625 9.608125 46.7725 9.40625 45.625 C6.69101667 31.36963196 1.61459586 19.67090465 -7 8 C-4.69 5.36 -2.38 2.72 0 0 Z " fill="#F80C05" transform="translate(155,49)"/>
<path d="M0 0 C0.33 0 0.66 0 1 0 C1.39487839 6.74218283 0.61892248 12.24294393 -1.5390625 18.65234375 C-2.33695962 21.25789003 -2.33695962 21.25789003 0 24 C0.61875 22.865625 1.2375 21.73125 1.875 20.5625 C3.75 17.125 3.75 17.125 6 16 C4.62531627 25.62278613 -1.92385351 34.63295059 -8 42 C-10.93446886 40.58208437 -13.43332409 39.01667393 -16 37 C-14.91962365 33.54279569 -13.34560845 31.05379855 -11.125 28.25 C-4.68655786 19.82689245 -2.50478867 10.1124181 0 0 Z " fill="#AF121D" transform="translate(164,112)"/>
<path d="M0 0 C0 0.99 0 1.98 0 3 C-1.400487 4.19553768 -2.80990295 5.38188803 -4.2578125 6.51953125 C-6.03089975 8.02625786 -7.44469255 9.59213929 -8.9375 11.375 C-14.33481642 17.7183629 -20.38177501 23.46836232 -26.30371094 29.31591797 C-27.81768931 30.81900128 -29.31201996 32.33912517 -30.8046875 33.86328125 C-33.05928003 36.05769782 -35.31312108 37.38787265 -38 39 C-38.86625 39.886875 -39.7325 40.77375 -40.625 41.6875 C-43 44 -43 44 -46 44 C-45.38125 43.7525 -44.7625 43.505 -44.125 43.25 C-41.8860071 42.19389198 -41.8860071 42.19389198 -41.08447266 40.15136719 C-39.86132906 37.72490583 -38.45763461 36.22953911 -36.5234375 34.328125 C-35.853125 33.66425781 -35.1828125 33.00039062 -34.4921875 32.31640625 C-33.79351562 31.63449219 -33.09484375 30.95257813 -32.375 30.25 C-31.66859375 29.55261719 -30.9621875 28.85523437 -30.234375 28.13671875 C-28.49401297 26.41987512 -26.74915019 24.70788168 -25 23 C-27.9115281 24.37583975 -30.48765528 25.95333027 -33.109375 27.8203125 C-33.86347656 28.35527344 -34.61757812 28.89023438 -35.39453125 29.44140625 C-36.17183594 29.99699219 -36.94914062 30.55257812 -37.75 31.125 C-38.54277344 31.68832031 -39.33554688 32.25164062 -40.15234375 32.83203125 C-42.10334076 34.21888455 -44.05247588 35.60827614 -46 37 C-46 36.01 -46 35.02 -46 34 C-43.66847715 32.0106357 -41.35870106 30.2188314 -38.875 28.4375 C-38.14941895 27.90592285 -37.42383789 27.3743457 -36.67626953 26.82666016 C-34.45856721 25.20679427 -32.23098207 23.60151209 -30 22 C-29.3709375 21.54608887 -28.741875 21.09217773 -28.09375 20.62451172 C-24.07771624 17.72807947 -20.04183394 14.8602719 -16 12 C-13.41489176 10.16915353 -10.83194949 8.33529743 -8.25 6.5 C-7.65300293 6.07831543 -7.05600586 5.65663086 -6.44091797 5.22216797 C-4.13738685 3.58465342 -2.00258374 2.00258374 0 0 Z " fill="#260809" transform="translate(162,41)"/>
<path d="M0 0 C2.6171875 -0.14453125 2.6171875 -0.14453125 5 0 C8.42319445 8.69332173 9.72413056 16.67561297 10 26 C7.03 26.33 4.06 26.66 1 27 C0.69255859 24.99486328 0.69255859 24.99486328 0.37890625 22.94921875 C0.10690682 21.19529141 -0.16523606 19.4413863 -0.4375 17.6875 C-0.63956055 16.36588867 -0.63956055 16.36588867 -0.84570312 15.01757812 C-0.97783203 14.17001953 -1.10996094 13.32246094 -1.24609375 12.44921875 C-1.36654053 11.66893311 -1.4869873 10.88864746 -1.61108398 10.0847168 C-1.98488611 7.81720203 -1.98488611 7.81720203 -3 5 C-1.875 2.3125 -1.875 2.3125 0 0 Z " fill="#DE0F0F" transform="translate(164,71)"/>
<path d="M0 0 C0.52464844 0.18175781 1.04929687 0.36351562 1.58984375 0.55078125 C9.9009821 3.24740684 18.39842715 4.59301419 27 6 C27.33 9.3 27.66 12.6 28 16 C8.18249258 15.18249258 8.18249258 15.18249258 3 10 C3.99 9.34 4.98 8.68 6 8 C5.505 7.566875 5.01 7.13375 4.5 6.6875 C3 5 3 5 3 2 C2.01 1.67 1.02 1.34 0 1 C0 0.67 0 0.34 0 0 Z " fill="#D10804" transform="translate(66,165)"/>
<path d="M0 0 C0.06058594 1.07378906 0.12117188 2.14757812 0.18359375 3.25390625 C0.26807651 4.69011315 0.35272054 6.12631058 0.4375 7.5625 C0.47681641 8.26697266 0.51613281 8.97144531 0.55664062 9.69726562 C0.82518279 14.1798541 1.30616197 18.56293497 2 23 C1.34 23 0.68 23 0 23 C-0.66 21.02 -1.32 19.04 -2 17 C-4.52742845 18.89557134 -4.97169284 19.80589378 -5.4375 23 C-5.30269167 26.10654034 -5.30269167 26.10654034 -3 27.875 C-2.34 28.24625 -1.68 28.6175 -1 29 C-1.33 31.64 -1.66 34.28 -2 37 C-9.0053867 29.9946133 -10.10466187 16.27121796 -10.125 6.875 C-10.093338 4.91647937 -10.05524131 2.95799743 -10 1 C-2.25 0 -2.25 0 0 0 Z " fill="#D40B0B" transform="translate(27,98)"/>
<path d="M0 0 C0.6875 1.8125 0.6875 1.8125 1 4 C0.30003906 4.67095703 0.30003906 4.67095703 -0.4140625 5.35546875 C-2.36905439 7.38268941 -2.59072818 8.75181462 -3.0625 11.5 C-3.63680249 14.78172852 -4.08068448 16.12102671 -6 19 C-5.979375 19.763125 -5.95875 20.52625 -5.9375 21.3125 C-6.01833875 24.78856637 -7.3248707 26.99872667 -9 30 C-8.01 30.33 -7.02 30.66 -6 31 C-6.99 31 -7.98 31 -9 31 C-9 31.66 -9 32.32 -9 33 C-8.34 33 -7.68 33 -7 33 C-7.14308594 34.15628906 -7.14308594 34.15628906 -7.2890625 35.3359375 C-7.45535156 36.84027344 -7.45535156 36.84027344 -7.625 38.375 C-7.74101562 39.37273437 -7.85703125 40.37046875 -7.9765625 41.3984375 C-7.98429687 42.25695312 -7.99203125 43.11546875 -8 44 C-7.34 44.66 -6.68 45.32 -6 46 C-6.99 46.495 -6.99 46.495 -8 47 C-8.65772428 50.02934491 -8.65772428 50.02934491 -9 53 C-11.52775351 49.20836973 -11.22443035 46.19125969 -11.125 41.8125 C-11.11597656 41.06291016 -11.10695313 40.31332031 -11.09765625 39.54101562 C-11.07412578 37.69387346 -11.03825561 35.84689588 -11 34 C-11.99 34.495 -11.99 34.495 -13 35 C-15.6723621 35.13415472 -18.32250488 35.04318541 -21 35 C-21 37.31 -21 39.62 -21 42 C-21.33 42 -21.66 42 -22 42 C-23.0006709 36.03654233 -23.0662997 31.71271093 -21 26 C-20.67 27.32 -20.34 28.64 -20 30 C-17.03 30 -14.06 30 -11 30 C-10.91363281 29.27296875 -10.82726563 28.5459375 -10.73828125 27.796875 C-9.31535235 17.61444801 -6.21307476 8.28409968 0 0 Z " fill="#EED4D7" transform="translate(38,64)"/>
<path d="M0 0 C0.66 0 1.32 0 2 0 C3.29925791 4.33085971 4.343621 8.51474352 5 13 C6.32 13 7.64 13 9 13 C9 12.34 9 11.68 9 11 C9.66 11.33 10.32 11.66 11 12 C10.814375 12.598125 10.62875 13.19625 10.4375 13.8125 C9.77906313 16.16408762 9.77906313 16.16408762 11 19 C11.78375 19.144375 12.5675 19.28875 13.375 19.4375 C16 20 16 20 18 21 C18.35766902 23.77985792 18.44409433 26.53624208 18.55859375 29.3359375 C19.04790788 32.28914315 19.68619002 33.18597298 22 35 C21.67 35.66 21.34 36.32 21 37 C18.525 34.525 18.525 34.525 16 32 C12.9168649 33.19899698 9.93720508 34.47700477 7 36 C7 35.01 7 34.02 7 33 C5.68 33.66 4.36 34.32 3 35 C2.67 33.35 2.34 31.7 2 30 C2.33 30.66 2.66 31.32 3 32 C4.11375 31.34 5.2275 30.68 6.375 30 C9.75 28 9.75 28 12 28 C11.46890625 27.18917969 10.9378125 26.37835938 10.390625 25.54296875 C0 9.25547445 0 9.25547445 0 0 Z M1 35 C1.99 35.495 1.99 35.495 3 36 C2.01 36.495 2.01 36.495 1 37 C1 36.34 1 35.68 1 35 Z " fill="#EBECEB" transform="translate(29,117)"/>
<path d="M0 0 C3.34390202 1.96700119 5.62517293 4.39382491 8.19140625 7.2890625 C6.72754515 11.68064579 4.21309287 12.16853683 0.19140625 14.2890625 C-0.47246094 13.67417969 -1.13632813 13.05929688 -1.8203125 12.42578125 C-2.70332031 11.61753906 -3.58632812 10.80929688 -4.49609375 9.9765625 C-5.36621094 9.17605469 -6.23632812 8.37554687 -7.1328125 7.55078125 C-9.71891991 5.2395578 -9.71891991 5.2395578 -12.58984375 3.6328125 C-14.80859375 2.2890625 -14.80859375 2.2890625 -15.62109375 0.1015625 C-15.68296875 -0.4965625 -15.74484375 -1.0946875 -15.80859375 -1.7109375 C-9.82670312 -3.70490104 -5.54530547 -2.60845164 0 0 Z " fill="#F00C08" transform="translate(144.80859375,39.7109375)"/>
<path d="M0 0 C1 3 1 3 0.41796875 4.828125 C-1.56293087 7.86223021 -4.08970293 10.25364223 -6.6875 12.75 C-10.76489353 16.74017656 -14.65286207 20.78458418 -18.3515625 25.1328125 C-20.81541258 27.92361899 -23.48366545 30.49609442 -26.140625 33.1015625 C-27.8363743 34.83293679 -29.36448809 36.60741743 -30.875 38.5 C-31.57625 39.325 -32.2775 40.15 -33 41 C-33.66 41 -34.32 41 -35 41 C-35.66 39.35 -36.32 37.7 -37 36 C-36.26031982 35.58556641 -35.52063965 35.17113281 -34.75854492 34.74414062 C-32.08667253 33.0548003 -30.08512789 31.32915583 -27.86328125 29.09375 C-26.75049805 27.97806641 -26.75049805 27.97806641 -25.61523438 26.83984375 C-24.85533203 26.06769531 -24.09542969 25.29554687 -23.3125 24.5 C-22.54099609 23.72785156 -21.76949219 22.95570312 -20.97460938 22.16015625 C-16.67775769 17.83962998 -16.67775769 17.83962998 -13 13 C-12.34 13 -11.68 13 -11 13 C-10.76539062 12.43796875 -10.53078125 11.8759375 -10.2890625 11.296875 C-8.69337 8.45364109 -6.71075457 6.51901873 -4.375 4.25 C-3.55773437 3.45078125 -2.74046875 2.6515625 -1.8984375 1.828125 C-1.27195313 1.22484375 -0.64546875 0.6215625 0 0 Z " fill="#200001" transform="translate(108,94)"/>
<path d="M0 0 C0 3 0 3 -1.3894043 4.72998047 C-2.02789307 5.35275879 -2.66638184 5.97553711 -3.32421875 6.6171875 C-4.02353516 7.30683594 -4.72285156 7.99648437 -5.44335938 8.70703125 C-6.18392578 9.42246094 -6.92449219 10.13789062 -7.6875 10.875 C-8.7693457 11.93654297 -8.7693457 11.93654297 -9.87304688 13.01953125 C-11.91057932 15.01798773 -13.95496958 17.0092228 -16 19 C-19.22770829 22.17727534 -22.31931883 25.41346375 -25.3125 28.8125 C-26.00988281 29.60269531 -26.70726563 30.39289063 -27.42578125 31.20703125 C-27.94527344 31.79871094 -28.46476562 32.39039063 -29 33 C-29.495 31.515 -29.495 31.515 -30 30 C-28.68 29.34 -27.36 28.68 -26 28 C-26 27.01 -26 26.02 -26 25 C-28.49064888 24.31292445 -30.37886292 24 -33 24 C-23.51027713 16.76913404 -13.91139789 9.7764554 -4.03515625 3.08203125 C-1.23939913 1.30043591 -1.23939913 1.30043591 0 0 Z " fill="#D90D0F" transform="translate(137,62)"/>
<path d="M0 0 C1.27450447 0.59638333 2.54446877 1.20247416 3.8125 1.8125 C4.52019531 2.14894531 5.22789063 2.48539063 5.95703125 2.83203125 C8.05795105 4.03313072 9.49061278 5.10969487 11 7 C11 7.99 11 8.98 11 10 C11.99 10.33 12.98 10.66 14 11 C14.6875 13.0625 14.6875 13.0625 15 15 C9.62488474 16.45627171 6.92020277 15.44072588 2.0625 12.875 C1.45003418 12.5545874 0.83756836 12.2341748 0.20654297 11.90405273 C-4.14362103 9.58546971 -8.12919183 7.04134927 -12 4 C-10 3 -10 3 -6.625 3.5 C-3.49901506 3.93117034 -1.88604813 4.03897733 1 3 C0.67 2.01 0.34 1.02 0 0 Z " fill="#E40B0B" transform="translate(58,160)"/>
<path d="M0 0 C1.65 0 3.3 0 5 0 C5.33 2.31 5.66 4.62 6 7 C-7.87285223 18 -7.87285223 18 -12 18 C-12 16.35 -12 14.7 -12 13 C-13.32 12.67 -14.64 12.34 -16 12 C-14.04463725 9.5845519 -12.55387642 8.8099844 -9.625 7.5625 C-5.60977862 5.83180113 -2.0127928 4.02558559 0 0 Z " fill="#AC0C0E" transform="translate(142,155)"/>
<path d="M0 0 C0.495 1.485 0.495 1.485 1 3 C0.2575 3.12375 -0.485 3.2475 -1.25 3.375 C-3.82930049 3.96120466 -5.7482162 4.63284555 -8 6 C-8.33 6.66 -8.66 7.32 -9 8 C-11.3140622 8.73075648 -13.64828869 9.40138258 -16 10 C-16 10.66 -16 11.32 -16 12 C-16.61488281 12.08636719 -17.22976562 12.17273437 -17.86328125 12.26171875 C-23.1897961 13.04103275 -23.1897961 13.04103275 -26.9375 16.625 C-27.288125 17.40875 -27.63875 18.1925 -28 19 C-28.66 19 -29.32 19 -30 19 C-29.67 19.66 -29.34 20.32 -29 21 C-27.35 21 -25.7 21 -24 21 C-24 20.34 -24 19.68 -24 19 C-23.01 19.33 -22.02 19.66 -21 20 C-22.98 21.65 -24.96 23.3 -27 25 C-29.31 23.02 -31.62 21.04 -34 19 C-32.70079715 15.10239144 -30.33149834 13.81920874 -27.0625 11.625 C-26.18549438 11.02836548 -26.18549438 11.02836548 -25.29077148 10.41967773 C-17.7458666 5.37636913 -9.2920518 0 0 0 Z " fill="#AE0D11" transform="translate(77,26)"/>
<path d="M0 0 C1.32 0.33 2.64 0.66 4 1 C2.35 2.32 0.7 3.64 -1 5 C0.49097658 8.7952131 2.75700849 10.61042731 6 13 C6.928125 12.154375 7.85625 11.30875 8.8125 10.4375 C10.39453125 8.99609375 10.39453125 8.99609375 12 8 C12.99 8.33 13.98 8.66 15 9 C13.68 11.31 12.36 13.62 11 16 C10.01 15.67 9.02 15.34 8 15 C7.67 15.99 7.34 16.98 7 18 C5.67203709 18.35412344 4.33783393 18.68521554 3 19 C1.08965089 20.54297428 0.10663482 21.77251239 -0.9375 24 C-2.22217969 26.4182206 -3.7449403 27.49662686 -6 29 C-5.73781251 24.5428126 -5.42288711 22.48477302 -2.4375 19.0625 C-1.2309375 18.0415625 -1.2309375 18.0415625 0 17 C-1.04539719 14.74837528 -2.11156417 12.85410839 -3.625 10.875 C-5 9 -5 9 -5 7 C-4.68521554 5.66216607 -4.35412344 4.32796291 -4 3 C-2.68 3 -1.36 3 0 3 C0 2.01 0 1.02 0 0 Z " fill="#F2DDE0" transform="translate(45,38)"/>
<path d="M0 0 C0.99 0 1.98 0 3 0 C3.33 0.66 3.66 1.32 4 2 C5.98 1.67 7.96 1.34 10 1 C3.23688838 9.36490122 -4.17031472 16.23741838 -13.5 21.625 C-14.41749023 22.15758423 -14.41749023 22.15758423 -15.35351562 22.70092773 C-16.86545578 23.53771279 -18.42988677 24.2782544 -20 25 C-20.66 24.67 -21.32 24.34 -22 24 C-17.25 21 -17.25 21 -15 21 C-15 20.34 -15 19.68 -15 19 C-15.66 19 -16.32 19 -17 19 C-16.67 18.01 -16.34 17.02 -16 16 C-12.9375 14.8125 -12.9375 14.8125 -10 14 C-10 13.34 -10 12.68 -10 12 C-8.21601386 10.71993203 -6.37146094 9.52339649 -4.5 8.375 C-3.4790625 7.74335938 -2.458125 7.11171875 -1.40625 6.4609375 C-0.6121875 5.97882813 0.181875 5.49671875 1 5 C0.67 3.35 0.34 1.7 0 0 Z " fill="#EEECEE" transform="translate(152,155)"/>
<path d="M0 0 C0.99 0.33 1.98 0.66 3 1 C2.52450066 3.62571335 2.04477433 6.2505304 1.5625 8.875 C1.42779297 9.62136719 1.29308594 10.36773437 1.15429688 11.13671875 C0.11328125 16.7734375 0.11328125 16.7734375 -1 19 C-3.64 19 -6.28 19 -9 19 C-8.00107666 12.00753665 -6.25292605 6.71486938 -2 1 C-1.34 0.67 -0.68 0.34 0 0 Z " fill="#C20807" transform="translate(28,74)"/>
<path d="M0 0 C0.33 0 0.66 0 1 0 C1 7.59 1 15.18 1 23 C1.66 23 2.32 23 3 23 C3 22.34 3 21.68 3 21 C4.32 21.33 5.64 21.66 7 22 C6.04480469 22.6290625 5.08960938 23.258125 4.10546875 23.90625 C-2.94850019 28.57105998 -9.89784289 33.28683385 -16.6328125 38.40625 C-19.01940475 40.01306458 -21.29653139 41.03791153 -24 42 C-24 42.66 -24 43.32 -24 44 C-25.96875 45.5078125 -25.96875 45.5078125 -28.5 47.125 C-29.3353125 47.66382813 -30.170625 48.20265625 -31.03125 48.7578125 C-31.6809375 49.16773438 -32.330625 49.57765625 -33 50 C-33.8971875 49.319375 -33.8971875 49.319375 -34.8125 48.625 C-36.50590652 47.36704087 -38.24477086 46.17015276 -40 45 C-34.375 43.875 -34.375 43.875 -31 45 C-28.98867953 44.05593256 -28.98867953 44.05593256 -26.9375 42.53515625 C-26.14520996 41.98754639 -25.35291992 41.43993652 -24.53662109 40.87573242 C-22.82959157 39.65551026 -21.12421509 38.43297261 -19.42041016 37.20825195 C-11.94516482 31.85082702 -11.94516482 31.85082702 -8.3359375 30.1953125 C-4.80253799 28.39598241 -3.13951987 27.37890347 -1 24 C0.57617595 16.12199388 0.31859889 7.99222695 0 0 Z " fill="#370A0A" transform="translate(107,58)"/>
<path d="M0 0 C2.31 1.98 4.62 3.96 7 6 C5.30894219 9.38211562 4.47221474 10.52778526 2 13 C0.82425289 15.09989652 0.82425289 15.09989652 0 17 C-0.66 16.01 -1.32 15.02 -2 14 C-2.99 13.67 -3.98 13.34 -5 13 C-5.33 12.34 -5.66 11.68 -6 11 C-6.33 11.66 -6.66 12.32 -7 13 C-7.66 13 -8.32 13 -9 13 C-7.47987323 7.59510481 -3.72614782 4.01507372 0 0 Z " fill="#AF121C" transform="translate(39,47)"/>
<path d="M0 0 C4.97306516 0.49730652 8.63799813 1.55302334 13 4 C12.34 4.66 11.68 5.32 11 6 C10.83318891 9.08347826 10.83318891 9.08347826 11 12 C9.7625 11.5875 8.525 11.175 7.25 10.75 C6.43402344 10.47929687 5.61804688 10.20859375 4.77734375 9.9296875 C2.82891346 9.27747033 0.88385854 8.61512363 -1.05859375 7.9453125 C-2.09113281 7.59210937 -3.12367187 7.23890625 -4.1875 6.875 C-5.15042969 6.54242187 -6.11335938 6.20984375 -7.10546875 5.8671875 C-10.06008547 4.98199868 -12.95040406 4.44275615 -16 4 C-16 3.67 -16 3.34 -16 3 C-11.05 3 -6.1 3 -1 3 C-0.67 2.01 -0.34 1.02 0 0 Z " fill="#F2DEDF" transform="translate(124,21)"/>
<path d="M0 0 C1.93568937 2.90353406 3.0506027 5.51099325 4.3125 8.75 C6.35975161 13.78282688 8.72611204 17.69717583 12 22 C12 22.66 12 23.32 12 24 C5.25 28 5.25 28 3 28 C1.4921875 25.8125 1.4921875 25.8125 -0.125 23 C-0.66382813 22.071875 -1.20265625 21.14375 -1.7578125 20.1875 C-2.37269531 19.1046875 -2.37269531 19.1046875 -3 18 C-1.68 17.34 -0.36 16.68 1 16 C2.24546405 18.49092811 1.7767578 19.41080733 1 22 C1.99 21.67 2.98 21.34 4 21 C4.67958603 18.60280568 4.67958603 18.60280568 5 16 C3.15811388 13.94729537 3.15811388 13.94729537 1 13 C1.020625 12.154375 1.04125 11.30875 1.0625 10.4375 C0.99783768 6.88107223 0.5614504 3.50906497 0 0 Z " fill="#E81D26" transform="translate(29,121)"/>
<path d="M0 0 C4.26652402 3.7924658 6.89480975 7.67233976 9 13 C9 13.66 9 14.32 9 15 C7.68 15 6.36 15 5 15 C3.02612187 19.76052962 2.9929762 22.96488101 4 28 C3.70939697 27.41806885 3.41879395 26.8361377 3.11938477 26.23657227 C2.11370535 24.2271875 1.10282589 22.22055352 0.08984375 20.21484375 C-0.62765809 18.78908963 -1.34510446 17.3633076 -2.0625 15.9375 C-2.60874023 14.85758789 -2.60874023 14.85758789 -3.16601562 13.75585938 C-3.51470703 13.06169922 -3.86339844 12.36753906 -4.22265625 11.65234375 C-4.53984619 11.02320068 -4.85703613 10.39405762 -5.18383789 9.74584961 C-6 8 -6 8 -7 5 C-4.525 5.495 -4.525 5.495 -2 6 C-1.67 6.99 -1.34 7.98 -1 9 C-0.67 9.66 -0.34 10.32 0 11 C0.99 11.33 1.98 11.66 3 12 C3.2502157 9.08365871 3.2502157 9.08365871 3 6 C2.01 5.34 1.02 4.68 0 4 C0 2.68 0 1.36 0 0 Z " fill="#E21E23" transform="translate(159,56)"/>
<path d="M0 0 C3 1 3 1 5 2 C5 2.66 5 3.32 5 4 C-0.445 4.495 -0.445 4.495 -6 5 C-6.87430376 9.90178707 -6.87430376 9.90178707 -6.4375 14.8125 C-6.293125 15.534375 -6.14875 16.25625 -6 17 C-6.66 17.66 -7.32 18.32 -8 19 C-11.07867675 15.92132325 -11.16299884 12.73405631 -11.25 8.5 C-11.19548652 5.74252622 -11.01243449 4.03186337 -10 1.4375 C-6.87064847 -0.81172141 -3.6621809 -0.49874059 0 0 Z " fill="#120101" transform="translate(67,99)"/>
<path d="M0 0 C0 2.31 0 4.62 0 7 C-6.435 7.495 -6.435 7.495 -13 8 C-13 7.01 -13 6.02 -13 5 C-13.66 5 -14.32 5 -15 5 C-15.33 3.68 -15.66 2.36 -16 1 C-10.63904667 -0.12862175 -5.44693314 -0.09688221 0 0 Z " fill="#BD0706" transform="translate(93,25)"/>
<path d="M0 0 C1.65 0 3.3 0 5 0 C5 3.3 5 6.6 5 10 C7.31 10 9.62 10 12 10 C12 10.33 12 10.66 12 11 C-16.50619856 11.25127893 -16.50619856 11.25127893 -24 8 C-24 7.01 -24 6.02 -24 5 C-23.05253906 5.29003906 -23.05253906 5.29003906 -22.0859375 5.5859375 C-14.46456316 7.8042626 -6.86981571 9.02345353 1 10 C0.67 9.34 0.34 8.68 0 8 C-0.13415472 5.3276379 -0.04318541 2.67749512 0 0 Z " fill="#EEC9CC" transform="translate(93,171)"/>
<path d="M0 0 C0.99 0 1.98 0 3 0 C4.42259481 5.30239883 3.50085434 8.17692378 1 13 C-0.6875 15.4375 -0.6875 15.4375 -2 17 C-4.62187494 15.95125002 -5.79371361 15.35068687 -7.25 12.875 C-7.4975 12.25625 -7.745 11.6375 -8 11 C-6.71937515 9.2925002 -5.38232443 7.62626404 -4 6 C-3.34 6 -2.68 6 -2 6 C-1.34 4.02 -0.68 2.04 0 0 Z " fill="#AF0606" transform="translate(158,137)"/>
<path d="M0 0 C0 0.99 0 1.98 0 3 C-1.39491008 4.1907769 -2.79864691 5.37257327 -4.2421875 6.50390625 C-6.10160759 8.08647935 -7.61037276 9.7621613 -9.1875 11.625 C-13.80955883 17.05904214 -18.91843198 22.00113381 -24 27 C-24 22.24495298 -22.75193933 18.8945924 -20 15 C-16.24141823 11.63304143 -11.95551898 8.96047575 -7.74316406 6.20507812 C-5.00481738 4.31201381 -2.51989302 2.17311875 0 0 Z " fill="#040102" transform="translate(162,41)"/>
<path d="M0 0 C0.33 0 0.66 0 1 0 C1.99767973 6.73433815 2 13.20134904 2 20 C1.67 20 1.34 20 1 20 C1 16.7 1 13.4 1 10 C-2.3 10 -5.6 10 -9 10 C-8.979375 11.546875 -8.95875 13.09375 -8.9375 14.6875 C-8.93243016 18.26173735 -9.07320356 21.52451334 -10 25 C-10.33 25 -10.66 25 -11 25 C-11.0270491 21.93744039 -11.04686298 18.8751214 -11.0625 15.8125 C-11.07087891 14.94818359 -11.07925781 14.08386719 -11.08789062 13.19335938 C-11.10396812 8.99713231 -11.07559038 5.09063114 -10 1 C-9.34 2.32 -8.68 3.64 -8 5 C-5.36 5 -2.72 5 0 5 C0 3.35 0 1.7 0 0 Z " fill="#F2CFD3" transform="translate(174,92)"/>
<path d="M0 0 C2.31 0 4.62 0 7 0 C7.3690205 9.41002278 7.3690205 9.41002278 5 14 C4.34 13.34 3.68 12.68 3 12 C1.68 13.32 0.36 14.64 -1 16 C-0.67 10.72 -0.34 5.44 0 0 Z " fill="#CE0808" transform="translate(166,103)"/>
<path d="M0 0 C1.99071567 1.99071567 2.77938486 3.39415438 3.9453125 5.9140625 C4.29980469 6.67460937 4.65429688 7.43515625 5.01953125 8.21875 C5.38433594 9.0128125 5.74914062 9.806875 6.125 10.625 C6.49753906 11.42679688 6.87007812 12.22859375 7.25390625 13.0546875 C8.17318995 15.03468316 9.0883743 17.01646972 10 19 C8.68 19 7.36 19 6 19 C5.67 19.66 5.34 20.32 5 21 C1.17475764 19.549046 -0.19090966 17.61818068 -2 14 C-2 13.34 -2 12.68 -2 12 C-1.01 12 -0.02 12 1 12 C0.67 8.04 0.34 4.08 0 0 Z " fill="#F2E5E7" transform="translate(21,128)"/>
<path d="M0 0 C-0.99 0.495 -0.99 0.495 -2 1 C-2.65772428 4.02934491 -2.65772428 4.02934491 -3 7 C-1.68 7.33 -0.36 7.66 1 8 C-4.28 9.32 -9.56 10.64 -15 12 C-14.67 10.35 -14.34 8.7 -14 7 C-12.68 6.67 -11.36 6.34 -10 6 C-9.67 4.35 -9.34 2.7 -9 1 C-5.92677456 0.08941469 -3.19902639 -0.08886184 0 0 Z " fill="#F0E4E4" transform="translate(84,16)"/>
<path d="M0 0 C0.515625 0.37125 1.03125 0.7425 1.5625 1.125 C0.5625 3.125 0.5625 3.125 -1.4375 4.125 C-0.1175 4.125 1.2025 4.125 2.5625 4.125 C3.2225 3.135 3.8825 2.145 4.5625 1.125 C6.2125 2.775 7.8625 4.425 9.5625 6.125 C7.5825 7.775 5.6025 9.425 3.5625 11.125 C0.63199729 9.78239083 -1.64663591 8.25351462 -4.0625 6.125 C-4.65289062 5.609375 -5.24328125 5.09375 -5.8515625 4.5625 C-7.07840196 3.45048788 -8.26666568 2.29583432 -9.4375 1.125 C-3.0375 -1.09038462 -3.0375 -1.09038462 0 0 Z " fill="#F0E4E4" transform="translate(151.4375,36.875)"/>
<path d="M0 0 C2.3125 0.625 2.3125 0.625 5 2 C6.05226728 3.97300116 7.04788888 5.97676387 8 8 C10.56197123 10.81356892 10.56197123 10.81356892 13 13 C12.67 13.66 12.34 14.32 12 15 C10.35 13.35 8.7 11.7 7 10 C3.9168649 11.19899698 0.93720508 12.47700477 -2 14 C-2 13.01 -2 12.02 -2 11 C-3.98 11.99 -3.98 11.99 -6 13 C-6.33 11.35 -6.66 9.7 -7 8 C-6.67 8.66 -6.34 9.32 -6 10 C-4.88625 9.34 -3.7725 8.68 -2.625 8 C0.75 6 0.75 6 3 6 C1.515 3.03 1.515 3.03 0 0 Z M-8 13 C-7.01 13.495 -7.01 13.495 -6 14 C-6.99 14.495 -6.99 14.495 -8 15 C-8 14.34 -8 13.68 -8 13 Z " fill="#F6D5D9" transform="translate(38,139)"/>
<path d="M0 0 C0.66 0.33 1.32 0.66 2 1 C1.34 1.66 0.68 2.32 0 3 C0.495 3.99 0.495 3.99 1 5 C0.030625 5.12375 -0.93875 5.2475 -1.9375 5.375 C-3.4534375 5.684375 -3.4534375 5.684375 -5 6 C-5.33 6.66 -5.66 7.32 -6 8 C-6.99 8.33 -7.98 8.66 -9 9 C-9.763125 9.99 -10.52625 10.98 -11.3125 12 C-13.88683254 15.29202525 -15.87895379 15.45052717 -20 16 C-21.18330183 17.86644906 -21.18330183 17.86644906 -22 20 C-24.125 21.75 -24.125 21.75 -26 23 C-27.98 22.01 -29.96 21.02 -32 20 C-32 19.34 -32 18.68 -32 18 C-29.525 18.99 -29.525 18.99 -27 20 C-25.576875 18.7625 -25.576875 18.7625 -24.125 17.5 C-21.25 15 -21.25 15 -19 15 C-19 14.34 -19 13.68 -19 13 C-16.875 11.484375 -16.875 11.484375 -14 9.75 C-9.1199765 6.73865303 -4.51455079 3.53143944 0 0 Z " fill="#C60E17" transform="translate(102,87)"/>
<path d="M0 0 C10.74259681 5.0022779 10.74259681 5.0022779 14 9 C13.38511719 8.91621094 12.77023438 8.83242188 12.13671875 8.74609375 C11.32847656 8.64425781 10.52023438 8.54242188 9.6875 8.4375 C8.88699219 8.33308594 8.08648437 8.22867188 7.26171875 8.12109375 C4.83182884 7.85244822 4.83182884 7.85244822 2 9 C2 9.66 2 10.32 2 11 C0.6875 10.5625 -0.625 10.125 -1.9375 9.6875 C-3.16726562 9.27951172 -3.16726562 9.27951172 -4.421875 8.86328125 C-6.08131678 8.30761969 -7.7378631 7.7431947 -9.390625 7.16796875 C-13.58631912 5.71945531 -17.57405186 4.56742925 -22 4 C-22 3.67 -22 3.34 -22 3 C-19.03 3 -16.06 3 -13 3 C-13 3.66 -13 4.32 -13 5 C-11.948125 4.95875 -10.89625 4.9175 -9.8125 4.875 C-6 5 -6 5 -3.3125 6.125 C-1 7.29166667 -1 7.29166667 1.3125 6.125 C1.869375 5.75375 2.42625 5.3825 3 5 C3 4.34 3 3.68 3 3 C2.01 2.67 1.02 2.34 0 2 C0 1.34 0 0.68 0 0 Z " fill="#DC1018" transform="translate(128,30)"/>
<path d="M0 0 C7.59 0 15.18 0 23 0 C23 0.33 23 0.66 23 1 C15.74 1 8.48 1 1 1 C1 4.96 1 8.92 1 13 C1.99 13.33 2.98 13.66 4 14 C4.33 14.66 4.66 15.32 5 16 C4.67 16.66 4.34 17.32 4 18 C3.77377919 19.70363822 3.59111527 21.41328701 3.4375 23.125 C3.35371094 24.03507812 3.26992188 24.94515625 3.18359375 25.8828125 C3.12300781 26.58148438 3.06242187 27.28015625 3 28 C2.01 28 1.02 28 0 28 C0 18.76 0 9.52 0 0 Z " fill="#E4E4E5" transform="translate(53,85)"/>
<path d="M0 0 C1.07765625 0.01804687 2.1553125 0.03609375 3.265625 0.0546875 C4.49539062 0.08949219 4.49539062 0.08949219 5.75 0.125 C6.245 4.58 6.245 4.58 6.75 9.125 C5.8528125 9.19976562 4.955625 9.27453125 4.03125 9.3515625 C-7.47660615 10.56416718 -17.96579408 13.70951942 -28.25 19.125 C-28.91 18.465 -29.57 17.805 -30.25 17.125 C-29.610625 17.00125 -28.97125 16.8775 -28.3125 16.75 C-27.631875 16.54375 -26.95125 16.3375 -26.25 16.125 C-25.92 15.465 -25.59 14.805 -25.25 14.125 C-22.1875 13.5 -22.1875 13.5 -19.25 13.125 C-19.25 12.465 -19.25 11.805 -19.25 11.125 C-15.45074008 10.33967812 -11.64390199 9.67173353 -7.8125 9.0625 C-6.72066406 8.88589844 -5.62882812 8.70929687 -4.50390625 8.52734375 C-1.37950253 8.14101292 1.60586942 8.05386582 4.75 8.125 C4.75 5.815 4.75 3.505 4.75 1.125 C-0.2 1.455 -5.15 1.785 -10.25 2.125 C-6.14441282 0.07220641 -4.44793315 -0.0966942 0 0 Z " fill="#A81A29" transform="translate(88.25,23.875)"/>
<path d="M0 0 C2.31 1.98 4.62 3.96 7 6 C6.34 7.32 5.68 8.64 5 10 C3 7 3 7 3 4 C1.35 4 -0.3 4 -2 4 C-2.3403125 4.86625 -2.3403125 4.86625 -2.6875 5.75 C-5.58146401 10.71108116 -9.7037238 12.38808985 -15 14 C-15.99 14.66 -16.98 15.32 -18 16 C-20.6875 16.125 -20.6875 16.125 -23 16 C-20.87601192 13.87601192 -19.28340856 13.15211358 -16.5625 11.9375 C-10.27925945 8.89219217 -5.23391781 4.56724007 0 0 Z " fill="#A81620" transform="translate(144,151)"/>
<path d="M0 0 C0.6875 1.8125 0.6875 1.8125 1 4 C0.30003906 4.67095703 0.30003906 4.67095703 -0.4140625 5.35546875 C-2.36905439 7.38268941 -2.59072818 8.75181462 -3.0625 11.5 C-3.63680249 14.78172852 -4.08068448 16.12102671 -6 19 C-5.938125 20.11375 -5.938125 20.11375 -5.875 21.25 C-6.0578531 25.27276823 -7.87259263 27.6094445 -10 31 C-10.99 30.67 -11.98 30.34 -13 30 C-12.34 30 -11.68 30 -11 30 C-10.91363281 29.27296875 -10.82726562 28.5459375 -10.73828125 27.796875 C-9.31535235 17.61444801 -6.21307476 8.28409968 0 0 Z " fill="#E4B9BC" transform="translate(38,64)"/>
<path d="M0 0 C1 2 1 2 0.25 4.8125 C-1 8 -1 8 -2.625 10.5 C-4.25099935 12.98083278 -4.25099935 12.98083278 -4 16.125 C-4 17.07375 -4 18.0225 -4 19 C-4.46019531 19.43699219 -4.92039062 19.87398437 -5.39453125 20.32421875 C-7.5595169 22.58402129 -7.94223774 24.67096228 -8.6875 27.6875 C-8.93886719 28.68136719 -9.19023437 29.67523438 -9.44921875 30.69921875 C-9.63097656 31.45847656 -9.81273438 32.21773437 -10 33 C-7.36 33 -4.72 33 -2 33 C-2 33.33 -2 33.66 -2 34 C-4.97 34 -7.94 34 -11 34 C-10.74832112 21.30165663 -6.53901857 10.76851144 0 0 Z " fill="#B12131" transform="translate(29,60)"/>
<path d="M0 0 C0 3 0 3 -1.19335938 4.53393555 C-2.01030273 5.32731323 -2.01030273 5.32731323 -2.84375 6.13671875 C-3.43027344 6.71357422 -4.01679688 7.29042969 -4.62109375 7.88476562 C-5.24113281 8.47966797 -5.86117187 9.07457031 -6.5 9.6875 C-7.12003906 10.29400391 -7.74007812 10.90050781 -8.37890625 11.52539062 C-9.91264707 13.02373743 -11.45548198 14.51276493 -13 16 C-13.33 15.01 -13.66 14.02 -14 13 C-17.3 15.31 -20.6 17.62 -24 20 C-24.66 19.67 -25.32 19.34 -26 19 C-17.3471271 12.6475535 -8.68828544 6.30397426 0 0 Z " fill="#C81017" transform="translate(137,62)"/>
<path d="M0 0 C0 4.95 0 9.9 0 15 C-2 13 -2 13 -2.1953125 10.6171875 C-2.16050781 9.25980469 -2.16050781 9.25980469 -2.125 7.875 C-2.10695313 6.96492188 -2.08890625 6.05484375 -2.0703125 5.1171875 C-2.03550781 4.06917969 -2.03550781 4.06917969 -2 3 C-3.98 3 -5.96 3 -8 3 C-8 8.61 -8 14.22 -8 20 C-8.33 20 -8.66 20 -9 20 C-9.84023188 15.64667264 -10.10770995 11.55557481 -10.0625 7.125 C-10.05347656 5.97257812 -10.04445313 4.82015625 -10.03515625 3.6328125 C-10.02355469 2.76398438 -10.01195313 1.89515625 -10 1 C-2.25 0 -2.25 0 0 0 Z " fill="#BF2836" transform="translate(27,98)"/>
<path d="M0 0 C-1.66169474 4.30577504 -4.83080306 7.09011855 -8.0625 10.25 C-8.61744141 10.80429688 -9.17238281 11.35859375 -9.74414062 11.9296875 C-13.85956743 16 -13.85956743 16 -15 16 C-15 14.35 -15 12.7 -15 11 C-13.68 11 -12.36 11 -11 11 C-11.33 10.01 -11.66 9.02 -12 8 C-11.34 7.34 -10.68 6.68 -10 6 C-9.690625 5.34 -9.38125 4.68 -9.0625 4 C-6.90298432 -0.06497069 -4.1964753 -0.2268365 0 0 Z " fill="#D80D0F" transform="translate(94,108)"/>
<path d="M0 0 C3.96 0.33 7.92 0.66 12 1 C12.33 4.3 12.66 7.6 13 11 C4.814234 10.6623226 -2.35526412 10.03153319 -10 7 C-6.29563399 5.71073536 -3.32301367 6.23490826 0.5 6.875 C1.6240625 7.05804688 2.748125 7.24109375 3.90625 7.4296875 C6.30673144 7.87220049 8.64515281 8.36511473 11 9 C11 6.69 11 4.38 11 2 C7.7 2 4.4 2 1 2 C0.67 1.34 0.34 0.68 0 0 Z " fill="#BD2231" transform="translate(81,170)"/>
<path d="M0 0 C0 0.33 0 0.66 0 1 C-1.21623047 0.89945312 -1.21623047 0.89945312 -2.45703125 0.796875 C-7.96435734 0.71993913 -12.18003361 0.87158036 -16.3125 4.73828125 C-19.08254747 7.66728391 -21.57693571 10.78057791 -24 14 C-24.66 13.34 -25.32 12.68 -26 12 C-19.12194046 -0.03660419 -13.46085618 -1.65764253 0 0 Z " fill="#231312" transform="translate(134,84)"/>
<path d="M0 0 C0.763125 0.309375 1.52625 0.61875 2.3125 0.9375 C4.18789677 1.67893593 6.08684652 2.36228217 8 3 C9.6875 5.0625 9.6875 5.0625 11 7 C6.37641448 8.01493341 2.63768456 7.98104866 -2 7 C-2.66 6.34 -3.32 5.68 -4 5 C-3.34 5 -2.68 5 -2 5 C-1.7834375 4.0409375 -1.7834375 4.0409375 -1.5625 3.0625 C-1 1 -1 1 0 0 Z " fill="#F00B08" transform="translate(50,157)"/>
<path d="M0 0 C3.3 0 6.6 0 10 0 C10.57636773 9.22188363 8.44635579 17.19748764 6 26 C5.67 26 5.34 26 5 26 C5.51755404 17.55569721 6.4560881 9.31913693 8 1 C5.69 1 3.38 1 1 1 C1 3.97 1 6.94 1 10 C0.67 10 0.34 10 0 10 C0 6.7 0 3.4 0 0 Z " fill="#B72631" transform="translate(165,102)"/>
<path d="M0 0 C0.33 0 0.66 0 1 0 C1 7.59 1 15.18 1 23 C1.66 23 2.32 23 3 23 C3 22.34 3 21.68 3 21 C4.32 21.33 5.64 21.66 7 22 C4.58797799 23.65301509 2.17084663 25.29749946 -0.25 26.9375 C-0.93191406 27.40607422 -1.61382812 27.87464844 -2.31640625 28.35742188 C-2.98027344 28.80537109 -3.64414063 29.25332031 -4.328125 29.71484375 C-4.9355957 30.12855225 -5.54306641 30.54226074 -6.16894531 30.96850586 C-8.10148624 32.05717058 -9.83410258 32.56305737 -12 33 C-9.37519188 30.2207914 -7.39216909 28.17647609 -3.875 26.59375 C-0.48926159 23.53922513 -0.51949651 22.74457381 -0.1953125 18.359375 C-0.14223755 16.1567647 -0.11988807 13.95324373 -0.125 11.75 C-0.104375 10.62335938 -0.08375 9.49671875 -0.0625 8.3359375 C-0.01539181 5.55655446 0.00444042 2.77970081 0 0 Z " fill="#341718" transform="translate(107,58)"/>
<path d="M0 0 C1.32 0 2.64 0 4 0 C4.2493357 1.60115576 4.47378648 3.20620159 4.6875 4.8125 C4.81511719 5.70582031 4.94273437 6.59914063 5.07421875 7.51953125 C5 10 5 10 3.64453125 11.82421875 C2 13 2 13 0 13 C-0.39036513 11.39950296 -0.76178619 9.79437629 -1.125 8.1875 C-1.33382812 7.29417969 -1.54265625 6.40085937 -1.7578125 5.48046875 C-2 3 -2 3 0 0 Z " fill="#EB0B05" transform="translate(164,71)"/>
<path d="M0 0 C1.65 0.33 3.3 0.66 5 1 C5.33 2.65 5.66 4.3 6 6 C1.27389104 7.66052477 -1.5132001 6.56611389 -5.875 4.5625 C-7.59059046 3.7230044 -9.30144765 2.87345486 -11 2 C-7.2735915 0.95297814 -3.86986958 0.92557943 0 1 C0 0.67 0 0.34 0 0 Z " fill="#D91C1D" transform="translate(67,169)"/>
<path d="M0 0 C6.42857143 4.14285714 6.42857143 4.14285714 9 7 C8 10 8 10 5.625 11.25 C3 12 3 12 0 11 C0.66 10.01 1.32 9.02 2 8 C1.67 7.4225 1.34 6.845 1 6.25 C0 4 0 4 0 0 Z " fill="#F2DEDE" transform="translate(136,46)"/>
<path d="M0 0 C2 0 2 0 3.5859375 1.5390625 C7.02339439 5.54692708 10.20039846 9.52063754 13 14 C10.33212774 13.63359694 9.26938892 13.34152038 7.5703125 11.1875 C7.09335938 10.465625 6.61640625 9.74375 6.125 9 C3.61064541 5.90540974 2.40182294 5.08450165 -1.56640625 4.25 C-5.06123508 4.02429965 -8.49946091 3.92231813 -12 4 C-12 3.67 -12 3.34 -12 3 C-6.06 2.505 -6.06 2.505 0 2 C0 1.34 0 0.68 0 0 Z " fill="#331616" transform="translate(60,116)"/>
<path d="M0 0 C-0.66 1.98 -1.32 3.96 -2 6 C-2.66 6 -3.32 6 -4 6 C-3.67 6.66 -3.34 7.32 -3 8 C-1.35 8 0.3 8 2 8 C2 7.34 2 6.68 2 6 C2.99 6.33 3.98 6.66 5 7 C3.02 8.65 1.04 10.3 -1 12 C-3.31 10.02 -5.62 8.04 -8 6 C-6.56530686 1.69592058 -4.58010985 0 0 0 Z " fill="#A4131A" transform="translate(51,39)"/>
<path d="M0 0 C2.42479736 3.63719605 2.38662577 5.85703482 2.625 10.1875 C2.69976562 11.45980469 2.77453125 12.73210937 2.8515625 14.04296875 C2.90054688 15.01878906 2.94953125 15.99460937 3 17 C0.03 17.33 -2.94 17.66 -6 18 C-6.66 14.04 -7.32 10.08 -8 6 C-7.01 6.495 -7.01 6.495 -6 7 C-5.40644386 9.64860427 -5.25790731 12.29197322 -5 15 C-3.02 15 -1.04 15 1 15 C0.67 10.05 0.34 5.1 0 0 Z " fill="#C51C28" transform="translate(171,80)"/>
<path d="M0 0 C0.99 0.33 1.98 0.66 3 1 C2.67 1.66 2.34 2.32 2 3 C2.66 3.66 3.32 4.32 4 5 C2.0373772 7.04795423 0.5722693 7.94976638 -2.26953125 8.19921875 C-4.51954383 8.18858877 -6.75385562 8.12958525 -9 8 C-2.92207792 1.75324675 -2.92207792 1.75324675 0 0 Z " fill="#FAFBF9" transform="translate(139,69)"/>
<path d="M0 0 C2.31 1.98 4.62 3.96 7 6 C6.34 7.32 5.68 8.64 5 10 C4.67 8.68 4.34 7.36 4 6 C2.35 6 0.7 6 -1 6 C-1.33 6.66 -1.66 7.32 -2 8 C-4.5625 8.625 -4.5625 8.625 -7 9 C-4.8346853 5.64002892 -2.83967231 2.83967231 0 0 Z " fill="#A9232A" transform="translate(39,47)"/>
<path d="M0 0 C2.75 0.25 2.75 0.25 5 1 C5.66 2.98 6.32 4.96 7 7 C4 8 4 8 1.95703125 7.22265625 C1.24933594 6.83980469 0.54164062 6.45695313 -0.1875 6.0625 C-0.90292969 5.68222656 -1.61835937 5.30195313 -2.35546875 4.91015625 C-2.89816406 4.60980469 -3.44085938 4.30945313 -4 4 C-2.3125 1.9375 -2.3125 1.9375 0 0 Z " fill="#F60C08" transform="translate(42,150)"/>
<path d="M0 0 C1.5625 1.125 1.5625 1.125 3 3 C2.75921963 6.85248595 2.15973378 8.76039934 0 12 C-1.32 12 -2.64 12 -4 12 C-3.67 9.36 -3.34 6.72 -3 4 C-2.34 4 -1.68 4 -1 4 C-0.67 2.68 -0.34 1.36 0 0 Z " fill="#EDEFED" transform="translate(168,137)"/>
<path d="M0 0 C0.66 0.33 1.32 0.66 2 1 C-0.28702909 3.48348017 -2.58038832 5.96102575 -4.875 8.4375 C-5.52597656 9.14455078 -6.17695312 9.85160156 -6.84765625 10.58007812 C-7.47285156 11.25361328 -8.09804687 11.92714844 -8.7421875 12.62109375 C-9.3182373 13.2442749 -9.89428711 13.86745605 -10.48779297 14.50952148 C-12 16 -12 16 -14 17 C-12.62220316 14.03243757 -10.97121074 11.60199817 -9 9 C-8.505 8.154375 -8.01 7.30875 -7.5 6.4375 C-5.32774659 2.9075882 -3.96376443 1.32125481 0 0 Z " fill="#110605" transform="translate(97,108)"/>
<path d="M0 0 C2.5 2.0625 2.5 2.0625 5 5 C5.3125 8.8125 5.3125 8.8125 5 12 C4.67 12 4.34 12 4 12 C3.566875 10.2984375 3.566875 10.2984375 3.125 8.5625 C2.75375 7.386875 2.3825 6.21125 2 5 C1.34 4.67 0.68 4.34 0 4 C0 2.68 0 1.36 0 0 Z M-7 5 C-4.525 5.495 -4.525 5.495 -2 6 C-1.67 6.99 -1.34 7.98 -1 9 C-0.67 9.66 -0.34 10.32 0 11 C0.66 11 1.32 11 2 11 C2.33 11.99 2.66 12.98 3 14 C2.01 14.33 1.02 14.66 0 15 C-0.33 14.01 -0.66 13.02 -1 12 C-1.99 11.67 -2.98 11.34 -4 11 C-5.6875 7.9375 -5.6875 7.9375 -7 5 Z " fill="#EA181D" transform="translate(159,56)"/>
<path d="M0 0 C1.98 0.99 1.98 0.99 4 2 C3.67447917 4.01822917 3.34895833 6.03645833 3.0234375 8.0546875 C3.01570313 8.69664063 3.00796875 9.33859375 3 10 C3.66 10.66 4.32 11.32 5 12 C4.01 12.495 4.01 12.495 3 13 C2.34227572 16.02934491 2.34227572 16.02934491 2 19 C-0.52775351 15.20836973 -0.22443035 12.19125969 -0.125 7.8125 C-0.11597656 7.06291016 -0.10695313 6.31332031 -0.09765625 5.54101562 C-0.07412578 3.69387346 -0.03825561 1.84689588 0 0 Z " fill="#EECCCF" transform="translate(27,98)"/>
<path d="M0 0 C0.33 0 0.66 0 1 0 C1.66 2.97 2.32 5.94 3 9 C2.34 9 1.68 9 1 9 C0.7525 9.680625 0.505 10.36125 0.25 11.0625 C-1.24197908 14.56865083 -3.06835511 17.71620368 -5 21 C-5.66 21 -6.32 21 -7 21 C-5.9796129 17.78185606 -4.87238918 14.71287566 -3.5 11.625 C-1.89706378 7.75123747 -0.9304531 4.07967898 0 0 Z " fill="#F0D1D2" transform="translate(172,120)"/>
<path d="M0 0 C1.5625 1.25 1.5625 1.25 3 3 C2.6875 5.1875 2.6875 5.1875 2 7 C1.01 6.67 0.02 6.34 -1 6 C-0.65772428 8.97065509 -0.65772428 8.97065509 0 12 C0.66 12.33 1.32 12.66 2 13 C1.01 13 0.02 13 -1 13 C-4.1782099 9.7309841 -5 8.67834007 -5 4 C-2.5 1.75 -2.5 1.75 0 0 Z " fill="#F1DEE0" transform="translate(161,44)"/>
<path d="M0 0 C10.55808656 3.07517084 10.55808656 3.07517084 15 5 C14.38125 5.28875 13.7625 5.5775 13.125 5.875 C10.86674235 6.93720042 10.86674235 6.93720042 9 9 C5.99390037 7.99796679 4.93823179 7.39971554 3 5 C3 4.01 3 3.02 3 2 C2.01 1.67 1.02 1.34 0 1 C0 0.67 0 0.34 0 0 Z " fill="#D60D0D" transform="translate(66,165)"/>
<path d="M0 0 C0 1.98 0 3.96 0 6 C-2.31 6.66 -4.62 7.32 -7 8 C-7 5.69 -7 3.38 -7 1 C-4.53721199 -0.231394 -2.7204945 -0.07159196 0 0 Z " fill="#C20705" transform="translate(106,172)"/>
<path d="M0 0 C1.875 2 1.875 2 3 4 C0 6 0 6 -3 5.8125 C-6.00775285 4.99790027 -7.11821903 4.4044979 -9 2 C-5.52957297 -0.31361802 -4.08165827 -0.51020728 0 0 Z " fill="#EB0A02" transform="translate(138,37)"/>
<path d="M0 0 C4.75 0.875 4.75 0.875 7 2 C7 2.66 7 3.32 7 4 C7.66 4.33 8.32 4.66 9 5 C3.04296875 6.7578125 3.04296875 6.7578125 1 7 C0.01 6.34 -0.98 5.68 -2 5 C-1.34 3.35 -0.68 1.7 0 0 Z " fill="#E00903" transform="translate(124,31)"/>
<path d="M0 0 C0.62003906 0.19335938 1.24007812 0.38671875 1.87890625 0.5859375 C9.86757446 2.93486178 17.74707488 4.05330818 26 5 C26 5.33 26 5.66 26 6 C7.60578117 6.35910622 7.60578117 6.35910622 0 3 C0 2.01 0 1.02 0 0 Z " fill="#FAD2D4" transform="translate(69,176)"/>
<path d="M0 0 C0.625 2.3125 0.625 2.3125 1 5 C0.01 6.485 0.01 6.485 -1 8 C-1.99 8 -2.98 8 -4 8 C-4 6.35 -4 4.7 -4 3 C-4.99 3.495 -4.99 3.495 -6 4 C-6.33 2.68 -6.66 1.36 -7 0 C-4.3333581 -1.33332095 -2.83319697 -0.67102033 0 0 Z " fill="#F40B00" transform="translate(34,135)"/>
<path d="M0 0 C1.32 0.66 2.64 1.32 4 2 C3.21625 2.5775 2.4325 3.155 1.625 3.75 C-0.89914539 5.91355319 -1.60869261 7.1246314 -3 10 C-5.125 11.75 -5.125 11.75 -7 13 C-6.81523971 8.38099287 -6.20125576 5.78017921 -2.9375 2.5625 C-1.968125 1.716875 -0.99875 0.87125 0 0 Z " fill="#E2CED1" transform="translate(46,54)"/>
<path d="M0 0 C0.99 0 1.98 0 3 0 C3.33 1.98 3.66 3.96 4 6 C1.6875 7.5625 1.6875 7.5625 -1 9 C-1.99 8.67 -2.98 8.34 -4 8 C-4 7.34 -4 6.68 -4 6 C-3.34 6 -2.68 6 -2 6 C-1.34 4.02 -0.68 2.04 0 0 Z " fill="#B40603" transform="translate(158,137)"/>
<path d="M0 0 C1.65 1.65 3.3 3.3 5 5 C4.34 6.65 3.68 8.3 3 10 C-0.465 8.02 -0.465 8.02 -4 6 C-2.68 4.02 -1.36 2.04 0 0 Z " fill="#F6E4E7" transform="translate(139,28)"/>
<path d="M0 0 C-0.66 0 -1.32 0 -2 0 C-1.2236068 3.0745356 -1.2236068 3.0745356 1 5 C-2.3 5.66 -5.6 6.32 -9 7 C-9 5 -9 5 -7 2.875 C-6.34 2.25625 -5.68 1.6375 -5 1 C-6.98 1 -8.96 1 -11 1 C-11 0.67 -11 0.34 -11 0 C-3.57142857 -1.28571429 -3.57142857 -1.28571429 0 0 Z " fill="#EDE0E1" transform="translate(116,180)"/>
<path d="M0 0 C-0.763125 0.20625 -1.52625 0.4125 -2.3125 0.625 C-5.82229103 2.42070704 -6.52599781 4.43136312 -8 8 C-7.01 8.33 -6.02 8.66 -5 9 C-6.98 9 -8.96 9 -11 9 C-10.34 8.67 -9.68 8.34 -9 8 C-9 6.02 -9 4.04 -9 2 C-11.31 2.33 -13.62 2.66 -16 3 C-15.67 2.34 -15.34 1.68 -15 1 C-12.63671875 0.33203125 -12.63671875 0.33203125 -9.6875 -0.1875 C-8.72199219 -0.36667969 -7.75648437 -0.54585937 -6.76171875 -0.73046875 C-4.14592982 -0.98575791 -2.46648091 -0.82606605 0 0 Z " fill="#B4121D" transform="translate(115,170)"/>
<path d="M0 0 C0.66 0 1.32 0 2 0 C2.226875 0.9075 2.45375 1.815 2.6875 2.75 C4.00357635 7.47239163 6.06441503 11.86692688 8.07421875 16.328125 C9 19 9 19 8 22 C7.03654556 20.12762629 6.07946898 18.2519701 5.125 16.375 C4.59132813 15.33085937 4.05765625 14.28671875 3.5078125 13.2109375 C1.35977893 8.63662768 0 5.08303476 0 0 Z " fill="#F9CFD4" transform="translate(29,117)"/>
<path d="M0 0 C2.86207152 1.28299758 5.0245088 2.530636 7 5 C7 5.99 7 6.98 7 8 C7.66 8.33 8.32 8.66 9 9 C5.7 11.31 2.4 13.62 -1 16 C-1.66 15.67 -2.32 15.34 -3 15 C-0.36 12.69 2.28 10.38 5 8 C3.47524303 4.95048605 2.07114674 2.63600494 0 0 Z " fill="#F5D7D9" transform="translate(145,151)"/>
<path d="M0 0 C4.59306496 1.4859916 7.43569245 3.85014682 11 7 C9.02 7.99 9.02 7.99 7 9 C6.401875 8.360625 5.80375 7.72125 5.1875 7.0625 C3.09189663 4.79689611 3.09189663 4.79689611 0 4 C0 2.68 0 1.36 0 0 Z " fill="#ECDBDF" transform="translate(144,147)"/>
<path d="M0 0 C-11.20295203 8.08118081 -11.20295203 8.08118081 -16 10 C-16.66 9.67 -17.32 9.34 -18 9 C-13.25 6 -13.25 6 -11 6 C-10.91621094 5.37738281 -10.83242187 4.75476563 -10.74609375 4.11328125 C-10 2 -10 2 -8.22265625 0.91796875 C-7.50980469 0.67691406 -6.79695312 0.43585938 -6.0625 0.1875 C-5.35222656 -0.06644531 -4.64195312 -0.32039062 -3.91015625 -0.58203125 C-2 -1 -2 -1 0 0 Z " fill="#E8EAEA" transform="translate(148,170)"/>
<path d="M0 0 C0.99 0.33 1.98 0.66 3 1 C3.6875 3.0625 3.6875 3.0625 4 5 C4.33 4.01 4.66 3.02 5 2 C5.99 2.33 6.98 2.66 8 3 C7.67 3.66 7.34 4.32 7 5 C6.92934383 7.04055005 6.91578024 9.08334257 6.9375 11.125 C6.95103516 12.76855469 6.95103516 12.76855469 6.96484375 14.4453125 C6.97644531 15.28835937 6.98804688 16.13140625 7 17 C5.38869156 13.82255999 3.86627821 10.61046325 2.375 7.375 C1.92898437 6.41335937 1.48296875 5.45171875 1.0234375 4.4609375 C0 2 0 2 0 0 Z " fill="#FAD6DA" transform="translate(165,63)"/>
<path d="M0 0 C2.0625 2.3125 2.0625 2.3125 4 5 C3.67 5.99 3.34 6.98 3 8 C2.34 7.34 1.68 6.68 1 6 C-0.32 6 -1.64 6 -3 6 C-3 7.98 -3 9.96 -3 12 C-4.32 10.68 -5.64 9.36 -7 8 C-4.69 5.36 -2.38 2.72 0 0 Z " fill="#E3212F" transform="translate(155,49)"/>
<path d="M0 0 C1.65 0 3.3 0 5 0 C-1.15034169 8.44646925 -1.15034169 8.44646925 -5 12 C-4.34 9.03 -3.68 6.06 -3 3 C-2.34 3 -1.68 3 -1 3 C-0.67 2.01 -0.34 1.02 0 0 Z " fill="#F5E0E2" transform="translate(35,46)"/>
<path d="M0 0 C5.78898419 -0.20674944 10.42932723 0.40837921 16 2 C15.01 3.485 15.01 3.485 14 5 C9.38 4.01 4.76 3.02 0 2 C0 1.34 0 0.68 0 0 Z " fill="#EEC2C7" transform="translate(98,33)"/>
<path d="M0 0 C1.96630396 2.94945594 3.25740853 5.73697474 4.625 9 C5.29402344 10.5778125 5.29402344 10.5778125 5.9765625 12.1875 C7 15 7 15 7 18 C6.38125 17.360625 5.7625 16.72125 5.125 16.0625 C3.17402388 13.96116416 3.17402388 13.96116416 1 13 C1.020625 12.154375 1.04125 11.30875 1.0625 10.4375 C0.99783768 6.88107223 0.5614504 3.50906497 0 0 Z " fill="#D92331" transform="translate(29,121)"/>
<path d="M0 0 C1.67542976 0.28604898 3.34385343 0.61781233 5 1 C5.042721 2.66611905 5.04063832 4.33382885 5 6 C4 7 4 7 1.4375 7.0625 C0.2309375 7.0315625 0.2309375 7.0315625 -1 7 C-1.04254356 5.00045254 -1.04080783 2.99958364 -1 1 C-0.67 0.67 -0.34 0.34 0 0 Z " fill="#B40603" transform="translate(38,52)"/>
<path d="M0 0 C2.97 0.33 5.94 0.66 9 1 C9 1.33 9 1.66 9 2 C6.69 2 4.38 2 2 2 C2 4.31 2 6.62 2 9 C3.65 9 5.3 9 7 9 C7 9.33 7 9.66 7 10 C4.69 10 2.38 10 0 10 C0 6.7 0 3.4 0 0 Z " fill="#B22C39" transform="translate(99,23)"/>
<path d="M0 0 C0.66 0.33 1.32 0.66 2 1 C-0.36327599 3.73642483 -2.63694477 4.76097965 -6 6 C-6.33 6.33 -6.66 6.66 -7 7 C-9.67058851 7.14115161 -12.32432238 7.04247107 -15 7 C-12.48397814 4.48397814 -10.32111136 3.99815529 -6.9375 2.9375 C-3.1759587 1.99691238 -3.1759587 1.99691238 0 0 Z " fill="#F0CACC" transform="translate(131,172)"/>
<path d="M0 0 C1.875 1.5 1.875 1.5 3 3 C0 4 0 4 -2.1875 3.0625 C-2.785625 2.711875 -3.38375 2.36125 -4 2 C-4 2.66 -4 3.32 -4 4 C-5.98 4.33 -7.96 4.66 -10 5 C-10 4.34 -10 3.68 -10 3 C-6.84817494 -0.15182506 -4.36787908 -0.55760159 0 0 Z " fill="#E2E4E4" transform="translate(105,35)"/>
<path d="M0 0 C0.33 0.99 0.66 1.98 1 3 C0.41992188 3.03738281 -0.16015625 3.07476563 -0.7578125 3.11328125 C-5.90402639 3.54637846 -9.36393721 4.6280609 -14 7 C-16.16796875 6.5859375 -16.16796875 6.5859375 -18 6 C-6.52427184 0 -6.52427184 0 0 0 Z " fill="#AB2131" transform="translate(77,26)"/>
<path d="M0 0 C1.1055189 0.93590504 2.20935453 1.87379858 3.3125 2.8125 C3.92738281 3.33457031 4.54226562 3.85664063 5.17578125 4.39453125 C6.85424679 5.87172469 8.43882034 7.40039131 10 9 C7.69 8.34 5.38 7.68 3 7 C2.34 8.32 1.68 9.64 1 11 C0.34 11 -0.32 11 -1 11 C-0.67 9.35 -0.34 7.7 0 6 C0.66 6 1.32 6 2 6 C1.34 4.02 0.68 2.04 0 0 Z " fill="#E5191F" transform="translate(47,151)"/>
<path d="M0 0 C0 1.98 0 3.96 0 6 C-1.65 6 -3.3 6 -5 6 C-5.33 8.31 -5.66 10.62 -6 13 C-6.33 13 -6.66 13 -7 13 C-7 9.37 -7 5.74 -7 2 C-6.67 2.66 -6.34 3.32 -6 4 C-5.195625 3.34 -4.39125 2.68 -3.5625 2 C-1 0 -1 0 0 0 Z " fill="#1B1A1A" transform="translate(79,131)"/>
<path d="M0 0 C2 1 2 1 2.9375 2.9375 C3.95345922 5.31971493 3.95345922 5.31971493 7 7 C6.67 9.64 6.34 12.28 6 15 C3.61874536 12.61874536 2.99813759 10.66142433 1.875 7.5 C1.52179687 6.5203125 1.16859375 5.540625 0.8046875 4.53125 C0 2 0 2 0 0 Z " fill="#DA2131" transform="translate(19,120)"/>
<path d="M0 0 C2.97 0 5.94 0 9 0 C9 0.66 9 1.32 9 2 C10.60875 1.87625 10.60875 1.87625 12.25 1.75 C16.61948047 2.0412987 17.20919994 2.8634371 20 6 C11.625 3.90625 11.625 3.90625 3.25 1.8125 C2.1775 1.544375 1.105 1.27625 0 1 C0 0.67 0 0.34 0 0 Z " fill="#C51D29" transform="translate(106,33)"/>
<path d="M0 0 C2.97 0.495 2.97 0.495 6 1 C5.67 2.98 5.34 4.96 5 7 C3.35 7 1.7 7 0 7 C0 4.69 0 2.38 0 0 Z " fill="#CA0703" transform="translate(101,25)"/>
<path d="M0 0 C2.375 0.6875 2.375 0.6875 5 2 C6.3125 4.625 6.3125 4.625 7 7 C5.68 7 4.36 7 3 7 C2.67 7.99 2.34 8.98 2 10 C1.34 10 0.68 10 0 10 C0.33 8.68 0.66 7.36 1 6 C1.66 6 2.32 6 3 6 C2.01 4.02 1.02 2.04 0 0 Z " fill="#F2E0E1" transform="translate(38,139)"/>
<path d="M0 0 C0.99 0.33 1.98 0.66 3 1 C2.38722388 3.96175123 1.74627478 5.38058783 0 8 C-0.99 8 -1.98 8 -3 8 C-2.74438677 5.6568787 -2.40729228 3.32156597 -2 1 C-1.34 0.67 -0.68 0.34 0 0 Z " fill="#060704" transform="translate(76,136)"/>
<path d="M0 0 C0 3.79198146 -0.69972066 4.98088336 -3 8 C-5.5643642 9.85625574 -8.23724105 11.45784239 -11 13 C-9.46356148 9.31930113 -7.21849055 7.01224796 -4.375 4.25 C-3.55773437 3.45078125 -2.74046875 2.6515625 -1.8984375 1.828125 C-0.95871094 0.92320313 -0.95871094 0.92320313 0 0 Z " fill="#CCCCCD" transform="translate(144,61)"/>
<path d="M0 0 C0.99 0.33 1.98 0.66 3 1 C1.68 3.31 0.36 5.62 -1 8 C-2.32 8 -3.64 8 -5 8 C-5.66 7.34 -6.32 6.68 -7 6 C-5.90716423 4.96704564 -4.80029421 3.94892165 -3.6875 2.9375 C-3.07261719 2.36902344 -2.45773438 1.80054688 -1.82421875 1.21484375 C-0.92123047 0.61349609 -0.92123047 0.61349609 0 0 Z " fill="#DBDCDB" transform="translate(57,46)"/>
<path d="M0 0 C0 0.99 0 1.98 0 3 C-1.43803649 4.27462325 -2.88470014 5.54283424 -4.3984375 6.7265625 C-6.4233126 8.33658514 -8.20733715 10.13838858 -10 12 C-10.99 11.34 -11.98 10.68 -13 10 C-12.22914063 9.44570313 -11.45828125 8.89140625 -10.6640625 8.3203125 C-9.66117188 7.59585938 -8.65828125 6.87140625 -7.625 6.125 C-6.62726563 5.40570313 -5.62953125 4.68640625 -4.6015625 3.9453125 C-2.00530106 2.1005342 -2.00530106 2.1005342 0 0 Z " fill="#472425" transform="translate(162,41)"/>
<path d="M0 0 C0.33 0.66 0.66 1.32 1 2 C-4.0940919 9.68490153 -4.0940919 9.68490153 -7.875 11 C-8.57625 11 -9.2775 11 -10 11 C-6.79239749 7.19364503 -3.59253891 3.45436433 0 0 Z " fill="#3C0000" transform="translate(88,115)"/>
<path d="M0 0 C2.1875 0.3125 2.1875 0.3125 4 1 C2.02 2.65 0.04 4.3 -2 6 C-3.98 5.01 -5.96 4.02 -8 3 C-8 2.34 -8 1.68 -8 1 C-5.525 1.99 -5.525 1.99 -3 3 C-2.5875 2.484375 -2.175 1.96875 -1.75 1.4375 C-1.1725 0.963125 -0.595 0.48875 0 0 Z " fill="#D70E1D" transform="translate(78,104)"/>
<path d="M0 0 C0.9659657 2.60810739 1.02770914 3.89420147 0.3125 6.625 C-1.16625774 9.30084735 -2.17750049 9.96508351 -5 11 C-4.46884894 6.48521602 -2.63379708 3.65333143 0 0 Z " fill="#F4DADB" transform="translate(164,141)"/>
<path d="M0 0 C1.65 0.33 3.3 0.66 5 1 C3.35 2.98 1.7 4.96 0 7 C-1.65 5.35 -3.3 3.7 -5 2 C-4.01 2 -3.02 2 -2 2 C-1.34 2.66 -0.68 3.32 0 4 C0 2.68 0 1.36 0 0 Z " fill="#D2111C" transform="translate(74,123)"/>
<path d="M0 0 C1.32 0.99 2.64 1.98 4 3 C2.5361389 7.39158329 0.02168662 7.87947433 -4 10 C-4 7 -4 7 -2.625 5.3125 C-1 4 -1 4 1 4 C0.67 2.68 0.34 1.36 0 0 Z " fill="#DA1E2F" transform="translate(149,44)"/>
<path d="M0 0 C0 4.35637821 -2.27897057 6.05610053 -5.109375 9.19140625 C-7.24427494 11.23367623 -9.12212703 12.30233382 -12 13 C-11.34 12.01 -10.68 11.02 -10 10 C-9.34 10 -8.68 10 -8 10 C-7.79375 9.46375 -7.5875 8.9275 -7.375 8.375 C-5.42003056 4.9982346 -2.81776305 2.69525161 0 0 Z " fill="#460002" transform="translate(128,73)"/>
<path d="M0 0 C0.33 0.66 0.66 1.32 1 2 C1.99 2.33 2.98 2.66 4 3 C3.21625 3.28875 2.4325 3.5775 1.625 3.875 C-1.09671632 4.84912254 -1.09671632 4.84912254 -3 7 C-3.99 7.33 -4.98 7.66 -6 8 C-4.73058503 4.08597051 -3.48832306 2.20927127 0 0 Z " fill="#030302" transform="translate(128,76)"/>
<path d="M0 0 C0.5859375 1.90625 0.5859375 1.90625 1 4 C-0.375 5.5 -0.375 5.5 -2 7 C-2.71447643 9.10332891 -2.71447643 9.10332891 -3 11 C-3.66 11 -4.32 11 -5 11 C-5 11.99 -5 12.98 -5 14 C-5.66 14 -6.32 14 -7 14 C-5.53967505 8.68972746 -3.01679014 4.53669968 0 0 Z " fill="#E8B6B9" transform="translate(38,64)"/>
<path d="M0 0 C-1.32 1.32 -2.64 2.64 -4 4 C-4.598125 3.54625 -5.19625 3.0925 -5.8125 2.625 C-7.50590652 1.36704087 -9.24477086 0.17015276 -11 -1 C-6.70700357 -2.26264601 -4.12168689 -1.62950412 0 0 Z " fill="#3D0100" transform="translate(78,104)"/>
<path d="M0 0 C3 1 3 1 4 3 C3.66015625 5.3828125 3.66015625 5.3828125 3.0625 8.125 C2.86785156 9.03507812 2.67320313 9.94515625 2.47265625 10.8828125 C2.31667969 11.58148438 2.16070312 12.28015625 2 13 C1.67 13 1.34 13 1 13 C0.67 8.71 0.34 4.42 0 0 Z " fill="#C6C6C9" transform="translate(54,98)"/>
<path d="M0 0 C0.99 0.66 1.98 1.32 3 2 C2.34 2 1.68 2 1 2 C1 2.99 1 3.98 1 5 C-2.465 6.485 -2.465 6.485 -6 8 C-6.33 7.01 -6.66 6.02 -7 5 C-6.030625 4.54625 -5.06125 4.0925 -4.0625 3.625 C-0.92920418 2.34213779 -0.92920418 2.34213779 0 0 Z " fill="#E9E4E4" transform="translate(35,149)"/>
<path d="M0 0 C0.33 0.99 0.66 1.98 1 3 C-0.299375 3.61875 -0.299375 3.61875 -1.625 4.25 C-4.95819144 5.97832149 -7.91627901 7.87076408 -11 10 C-9.73459948 6.20379845 -8.21781569 5.51321812 -4.9375 3.3125 C-4.01839844 2.68988281 -3.09929688 2.06726562 -2.15234375 1.42578125 C-1.44207031 0.95527344 -0.73179688 0.48476563 0 0 Z " fill="#EDC6C9" transform="translate(61,42)"/>
<path d="M0 0 C2.22825644 2.22825644 2.69239369 3.65761628 3.625 6.625 C4.01558594 7.85089844 4.01558594 7.85089844 4.4140625 9.1015625 C4.60742188 9.72804687 4.80078125 10.35453125 5 11 C4.34 11.66 3.68 12.32 3 13 C2.49242138 11.58603098 1.99425075 10.16868271 1.5 8.75 C1.08234375 7.56664062 1.08234375 7.56664062 0.65625 6.359375 C0 4 0 4 0 0 Z " fill="#F8C5C8" transform="translate(21,128)"/>
<path d="M0 0 C0.33 0 0.66 0 1 0 C1.08121924 1.60332791 1.13929134 3.20784026 1.1875 4.8125 C1.22230469 5.70582031 1.25710937 6.59914063 1.29296875 7.51953125 C0.95081002 10.41647515 0.24606427 11.22555028 -2 13 C-3.45047396 10.09905209 -2.45356803 8.44027404 -1.5625 5.375 C-1.27503906 4.37210937 -0.98757812 3.36921875 -0.69140625 2.3359375 C-0.46324219 1.56507812 -0.23507813 0.79421875 0 0 Z " fill="#BC2633" transform="translate(164,112)"/>
<path d="M0 0 C0.66 0 1.32 0 2 0 C2.33 1.98 2.66 3.96 3 6 C1.68 6.99 0.36 7.98 -1 9 C-0.67 6.03 -0.34 3.06 0 0 Z " fill="#B51821" transform="translate(22,73)"/>
<path d="M0 0 C2.64 0.66 5.28 1.32 8 2 C8.33 3.32 8.66 4.64 9 6 C9.66 6 10.32 6 11 6 C10.67 6.66 10.34 7.32 10 8 C8.33055479 6.85821872 6.6645052 5.71147095 5 4.5625 C4.071875 3.92441406 3.14375 3.28632812 2.1875 2.62890625 C1.465625 2.09136719 0.74375 1.55382813 0 1 C0 0.67 0 0.34 0 0 Z " fill="#D81B27" transform="translate(130,41)"/>
<path d="M0 0 C2.31 1.98 4.62 3.96 7 6 C5.68 6.33 4.36 6.66 3 7 C1.25 5.8125 1.25 5.8125 0 4 C0 2.68 0 1.36 0 0 Z " fill="#F8D5DA" transform="translate(38,156)"/>
<path d="M0 0 C0 3 0 3 -1.53125 4.60546875 C-2.1809375 5.12753906 -2.830625 5.64960937 -3.5 6.1875 C-4.1496875 6.71730469 -4.799375 7.24710937 -5.46875 7.79296875 C-5.9740625 8.19128906 -6.479375 8.58960937 -7 9 C-7.33 8.01 -7.66 7.02 -8 6 C-5.36 4.02 -2.72 2.04 0 0 Z " fill="#9D1523" transform="translate(137,62)"/>
<path d="M0 0 C-0.99 0.66 -1.98 1.32 -3 2 C-3 2.99 -3 3.98 -3 5 C-4.32 5.33 -5.64 5.66 -7 6 C-7.33 5.01 -7.66 4.02 -8 3 C-7.34 3 -6.68 3 -6 3 C-6 2.01 -6 1.02 -6 0 C-3 -1 -3 -1 0 0 Z " fill="#E2DCDD" transform="translate(68,42)"/>
<path d="M0 0 C-0.99 0.33 -1.98 0.66 -3 1 C-3.99 2.485 -3.99 2.485 -5 4 C-5.99 3.67 -6.98 3.34 -8 3 C-9.66621616 2.96125079 -11.33394172 2.9549714 -13 3 C-8.8341563 0.22277086 -4.9360889 -1.89849573 0 0 Z " fill="#E7BABF" transform="translate(84,35)"/>
<path d="M0 0 C0 3 0 3 -1.375 4.6875 C-3 6 -3 6 -5 6 C-5.66 4.35 -6.32 2.7 -7 1 C-5.5459375 1.0309375 -5.5459375 1.0309375 -4.0625 1.0625 C-1.12534105 1.35618499 -1.12534105 1.35618499 0 0 Z " fill="#040100" transform="translate(78,129)"/>
<path d="M0 0 C3 1 3 1 4 3 C4.13415472 5.6723621 4.04318541 8.32250488 4 11 C0 3.57142857 0 3.57142857 0 0 Z " fill="#C10B17" transform="translate(24,80)"/>
<path d="M0 0 C1.32 0.33 2.64 0.66 4 1 C-1.625 6 -1.625 6 -5 6 C-4.67 5.01 -4.34 4.02 -4 3 C-2.68 3 -1.36 3 0 3 C0 2.01 0 1.02 0 0 Z " fill="#F6DADB" transform="translate(45,38)"/>
<path d="M0 0 C3.3 1.65 6.6 3.3 10 5 C6.86650268 6.04449911 6.01031744 5.93423645 3 5 C3 4.34 3 3.68 3 3 C2.01 2.67 1.02 2.34 0 2 C0 1.34 0 0.68 0 0 Z " fill="#D32334" transform="translate(128,30)"/>
<path d="M0 0 C0.99 0.66 1.98 1.32 3 2 C3 2.99 3 3.98 3 5 C1.35 4.67 -0.3 4.34 -2 4 C-2 3.01 -2 2.02 -2 1 C-1.34 0.67 -0.68 0.34 0 0 Z " fill="#AB0604" transform="translate(145,156)"/>
<path d="M0 0 C0.33 1.32 0.66 2.64 1 4 C0.01 4.33 -0.98 4.66 -2 5 C-4.1875 3.5625 -4.1875 3.5625 -6 2 C-3 0 -3 0 0 0 Z " fill="#EEF1F2" transform="translate(36,154)"/>
<path d="M0 0 C0.33 0.99 0.66 1.98 1 3 C-0.65 4.32 -2.3 5.64 -4 7 C-3.67 5.68 -3.34 4.36 -3 3 C-3.66 2.67 -4.32 2.34 -5 2 C-3.35 1.34 -1.7 0.68 0 0 Z " fill="#340000" transform="translate(151,51)"/>
<path d="M0 0 C0.99 0.33 1.98 0.66 3 1 C0.03 3.475 0.03 3.475 -3 6 C-4.32 4.68 -5.64 3.36 -7 2 C-4.69 2 -2.38 2 0 2 C0 1.34 0 0.68 0 0 Z " fill="#A3222F" transform="translate(53,45)"/>
<path d="M0 0 C3.4375 0.8125 3.4375 0.8125 7 2 C7.33 2.99 7.66 3.98 8 5 C8.66 5 9.32 5 10 5 C9.67 5.66 9.34 6.32 9 7 C7.4972763 6.02501855 5.99788037 5.04490611 4.5 4.0625 C3.6646875 3.51722656 2.829375 2.97195312 1.96875 2.41015625 C1.3190625 1.94480469 0.669375 1.47945312 0 1 C0 0.67 0 0.34 0 0 Z " fill="#DD3140" transform="translate(46,163)"/>
<path d="M0 0 C0.99 0 1.98 0 3 0 C3 0.66 3 1.32 3 2 C1.46875 3.2890625 1.46875 3.2890625 -0.5 4.625 C-1.1496875 5.07101563 -1.799375 5.51703125 -2.46875 5.9765625 C-2.9740625 6.31429687 -3.479375 6.65203125 -4 7 C-4 6.01 -4 5.02 -4 4 C-3.01 3.67 -2.02 3.34 -1 3 C-0.67 2.01 -0.34 1.02 0 0 Z " fill="#FEECED" transform="translate(138,153)"/>
<path d="M0 0 C0.99 0.33 1.98 0.66 3 1 C1.02 3.31 -0.96 5.62 -3 8 C-3.33 7.01 -3.66 6.02 -4 5 C-2.68 4.34 -1.36 3.68 0 3 C0 2.01 0 1.02 0 0 Z " fill="#C7101E" transform="translate(111,87)"/>
<path d="M0 0 C1.65 1.32 3.3 2.64 5 4 C4.34 5.32 3.68 6.64 3 8 C2.67 6.68 2.34 5.36 2 4 C1.34 4 0.68 4 0 4 C0 2.68 0 1.36 0 0 Z " fill="#A72B36" transform="translate(41,49)"/>
<path d="M0 0 C2.97 1.65 5.94 3.3 9 5 C7.68 5.33 6.36 5.66 5 6 C2.25 4.1875 2.25 4.1875 0 2 C0 1.34 0 0.68 0 0 Z " fill="#F5C1C3" transform="translate(127,40)"/>
<path d="M0 0 C3.3 0.99 6.6 1.98 10 3 C10 3.33 10 3.66 10 4 C7.69 4.33 5.38 4.66 3 5 C3 4.01 3 3.02 3 2 C2.01 1.67 1.02 1.34 0 1 C0 0.67 0 0.34 0 0 Z " fill="#CA1118" transform="translate(66,165)"/>
<path d="M0 0 C1.65 1.32 3.3 2.64 5 4 C4.34 5.32 3.68 6.64 3 8 C1.0549 5.08235 0.54723683 3.37462715 0 0 Z " fill="#A2222F" transform="translate(146,153)"/>
<path d="M0 0 C1.32 0.33 2.64 0.66 4 1 C2.68 2.65 1.36 4.3 0 6 C-1.32 5.34 -2.64 4.68 -4 4 C-3.34 3.67 -2.68 3.34 -2 3 C-1.34 3.33 -0.68 3.66 0 4 C0 2.68 0 1.36 0 0 Z " fill="#A01B28" transform="translate(156,148)"/>
<path d="M0 0 C1.65 0 3.3 0 5 0 C4.67 1.65 4.34 3.3 4 5 C2.68 4.34 1.36 3.68 0 3 C0 2.01 0 1.02 0 0 Z " fill="#BE0710" transform="translate(165,124)"/>
<path d="M0 0 C0.33 0.99 0.66 1.98 1 3 C-0.32 4.32 -1.64 5.64 -3 7 C-3.99 6.67 -4.98 6.34 -6 6 C-5.01 5.67 -4.02 5.34 -3 5 C-1.8499169 3.03327085 -1.8499169 3.03327085 -1 1 C-0.67 0.67 -0.34 0.34 0 0 Z " fill="#3F0101" transform="translate(100,102)"/>
<path d="M0 0 C0.33 1.32 0.66 2.64 1 4 C3.31 4 5.62 4 8 4 C8 4.33 8 4.66 8 5 C3.545 5.495 3.545 5.495 -1 6 C-0.67 4.02 -0.34 2.04 0 0 Z " fill="#F3D6D8" transform="translate(17,90)"/>
<path d="M0 0 C0 1.32 0 2.64 0 4 C-1.65 4.66 -3.3 5.32 -5 6 C-5.33 5.01 -5.66 4.02 -6 3 C-2.25 0 -2.25 0 0 0 Z " fill="#E20C07" transform="translate(123,75)"/>
<path d="M0 0 C0.66 0.33 1.32 0.66 2 1 C1.67 1.99 1.34 2.98 1 4 C-1.5625 5.1875 -1.5625 5.1875 -4 6 C-3.67 4.68 -3.34 3.36 -3 2 C-2.01 2 -1.02 2 0 2 C0 1.34 0 0.68 0 0 Z " fill="#E0D4D6" transform="translate(143,52)"/>
<path d="M0 0 C3.65316671 1.24976756 4.78065836 1.67098753 7 5 C4.03 4.505 4.03 4.505 1 4 C0.67 2.68 0.34 1.36 0 0 Z " fill="#E0292E" transform="translate(142,39)"/>
<path d="M0 0 C0.66 0 1.32 0 2 0 C0.25 5.75 0.25 5.75 -2 8 C-2.33 6.68 -2.66 5.36 -3 4 C-2.01 3.67 -1.02 3.34 0 3 C0 2.01 0 1.02 0 0 Z " fill="#E3D0D0" transform="translate(33,75)"/>
<path d="M0 0 C0.99 0.33 1.98 0.66 3 1 C0.69 2.65 -1.62 4.3 -4 6 C-4 5.01 -4 4.02 -4 3 C-2.1875 1.25 -2.1875 1.25 0 0 Z " fill="#340403" transform="translate(120,72)"/>
<path d="M0 0 C1.43088528 2.86177057 0.59991697 4.93375773 0 8 C-1.32 6.68 -2.64 5.36 -4 4 C-2.68 2.68 -1.36 1.36 0 0 Z " fill="#DE2834" transform="translate(152,53)"/>
<path d="M0 0 C0.928125 0.2784375 0.928125 0.2784375 1.875 0.5625 C4.04160178 1.23686176 4.04160178 1.23686176 6 0 C5.67 1.32 5.34 2.64 5 4 C3.35 3.67 1.7 3.34 0 3 C0 2.01 0 1.02 0 0 Z " fill="#E6E2E6" transform="translate(47,52)"/>
<path d="M0 0 C1.65 0.33 3.3 0.66 5 1 C4.01 2.485 4.01 2.485 3 4 C1.68 4 0.36 4 -1 4 C-0.67 2.68 -0.34 1.36 0 0 Z " fill="#A90C10" transform="translate(55,41)"/>
</svg>
